<svg width="16" height="16" viewBox="0 0 16 16" xmlns="http://www.w3.org/2000/svg">
<path fill-rule="evenodd" clip-rule="evenodd" d="M0.757206 14.5205C0.423874 14.8539 0.423874 15.3943 0.757206 15.7276C1.09054 16.061 1.63097 16.061 1.96431 15.7276L7.9997 9.69223L14.0354 15.7279C14.3687 16.0613 14.9092 16.0613 15.2425 15.7279C15.5758 15.3946 15.5758 14.8542 15.2425 14.5208L9.2068 8.48513L15.2424 2.44952C15.5757 2.11619 15.5757 1.57575 15.2424 1.24242C14.9091 0.909084 14.3686 0.909084 14.0353 1.24242L7.9997 7.27803L1.96439 1.24271C1.63106 0.909382 1.09062 0.909382 0.757287 1.24271C0.423955 1.57604 0.423955 2.11648 0.757287 2.44981L6.7926 8.48513L0.757206 14.5205Z" fill="currentColor"/>
</svg>
