<svg width="27" height="25" viewBox="0 0 27 25" xmlns="http://www.w3.org/2000/svg">
<path d="M24.7764 2.22618C21.8116 -0.742059 17.0015 -0.742059 14.0366 2.22618L1.72548 14.3936C-0.57516 16.6976 -0.57516 20.4464 1.72548 22.7471C4.02955 25.0511 7.77493 25.0511 10.079 22.7471L22.3902 10.5797C24.0369 8.93297 24.0369 6.25915 22.3902 4.61241C20.7434 2.96567 18.0696 2.96567 16.4229 4.61241L7.16553 13.8663C6.83687 14.1984 6.83687 14.7291 7.16553 15.0612C7.49419 15.3898 8.02828 15.3898 8.35694 15.0612L17.6143 5.80382C18.6003 4.81783 20.2059 4.81783 21.1953 5.80382C22.1813 6.7898 22.1813 8.39888 21.1953 9.38487L8.88417 21.5522C7.23743 23.199 4.56704 23.199 2.91688 21.5522C1.27014 19.9055 1.27014 17.2317 2.91688 15.585L15.1082 3.53741C17.4157 1.22992 21.1577 1.22992 23.4617 3.53741C25.7692 5.8449 25.7692 9.58344 23.4617 11.8909L14.3277 21.0284C13.9956 21.3605 13.9956 21.8912 14.3277 22.2233C14.6563 22.5554 15.1904 22.5554 15.5225 22.2233L24.7764 12.9659C27.7412 10.0011 27.7412 5.19099 24.7764 2.22618Z" fill="currentColor"/>
</svg>
