<svg width="23" height="24" viewBox="0 0 23 24" xmlns="http://www.w3.org/2000/svg">
<path d="M18.4355 2.19924C18.4355 0.910361 17.5768 0 16.3417 0H16.3141C16.158 0 16.0019 0 15.8595 0C15.6621 0 15.4692 0 15.2626 0C15.056 0 14.8585 0 14.6519 0C14.1973 0 13.83 0 13.4948 0.0143741C12.0117 0.0670793 10.6847 0.598922 9.64233 1.53324C8.59082 2.48193 7.91124 3.79956 7.69084 5.3328C7.58523 6.06588 7.57146 6.77021 7.57146 7.45059C7.30054 7.45059 7.01126 7.45059 6.74035 7.45059C6.45566 7.45059 5.69803 7.45059 5.12865 8.06389C4.55469 8.66281 4.55469 9.44859 4.55469 9.74566C4.55469 10.7087 4.55469 11.7005 4.55469 12.6636C4.55469 13.0038 4.55469 13.7752 5.15161 14.3885C5.72558 14.973 6.47862 14.973 6.79086 14.973C7.05259 14.973 7.3235 14.973 7.58523 14.973V15.9649C7.58523 17.867 7.57146 19.7788 7.57146 21.681C7.57146 22.0451 7.55768 22.7926 8.13165 23.3915C8.70561 24.0048 9.42192 24.0048 9.7709 24.0048C10.1336 24.0048 10.5102 24.0048 10.8775 24.0048H11.6994H12.4387C13.0127 24.0048 13.7152 24.0048 14.2846 23.4202C14.8723 22.8213 14.8723 22.0787 14.8723 21.4941V16.0463V15.0018C14.8723 15.0018 14.9504 15.0018 14.9871 15.0018C15.3774 15.0018 15.7677 15.0018 16.158 15.0018C17.4712 15.0018 18.3069 14.1346 18.3069 12.7499C18.3069 11.7724 18.3069 10.7566 18.3069 9.75045C18.3069 9.45338 18.3069 8.67718 17.7192 8.07826C17.1452 7.49371 16.4197 7.47934 16.1304 7.47934C15.8963 7.47934 15.6483 7.43621 15.4141 7.43621C15.2442 7.43621 15.0652 7.40747 14.8953 7.40747H14.8815C14.8815 7.40747 14.8815 7.32601 14.8815 7.27331C15.1019 7.27331 15.3223 7.28768 15.5565 7.28768C15.7907 7.28768 16.0386 7.30206 16.2866 7.28768C17.586 7.25893 18.4079 6.42044 18.4217 5.08844C18.4217 4.38411 18.4217 3.67498 18.4217 2.98503C18.4493 2.71671 18.4493 2.45798 18.4355 2.19924ZM16.8743 5.06448C16.8743 5.52446 16.7457 5.64903 16.2774 5.66341C15.6667 5.67778 15.0652 5.66341 14.4545 5.69215C13.6876 5.7209 13.3754 6.06109 13.3479 6.86125C13.3203 7.6087 13.3479 8.36574 13.3479 9.18028C13.582 9.18028 13.8162 9.18028 14.0504 9.18028C14.1652 9.18028 14.2846 9.18028 14.3994 9.18028C14.3994 9.18028 14.3994 9.18028 14.4131 9.18028C14.7529 9.18028 15.1019 9.13715 15.4417 9.13715C15.6759 9.13715 15.91 9.12278 16.1442 9.12278C16.6493 9.12278 16.7687 9.23298 16.7687 9.76003C16.7687 10.7518 16.7687 11.7532 16.7687 12.7451C16.7687 13.2338 16.6401 13.3679 16.1718 13.3679C15.7815 13.3679 15.405 13.3679 15.0147 13.3679C14.4682 13.3679 13.8575 13.3679 13.3387 13.3679C13.3387 13.5596 13.3387 13.7225 13.3387 13.8854C13.3387 16.4248 13.3387 18.9786 13.3387 21.5133C13.3387 22.3805 13.3111 22.3949 12.4662 22.3949C11.9474 22.3949 11.4239 22.3949 10.9051 22.3949C10.5423 22.3949 10.1658 22.3949 9.79845 22.3949C9.23825 22.3949 9.1602 22.2991 9.1602 21.7001C9.1602 19.108 9.17397 16.5015 9.17397 13.9094C9.17397 13.7465 9.17397 13.5835 9.17397 13.3679C8.6551 13.3679 8.19593 13.3679 7.74135 13.3679C7.42911 13.3679 7.11687 13.3679 6.81841 13.3679C6.25822 13.3679 6.14343 13.2577 6.14343 12.6876C6.14343 11.7245 6.14343 10.7471 6.14343 9.78399C6.14343 9.22819 6.26281 9.10361 6.78168 9.10361C7.09392 9.10361 7.39238 9.10361 7.70462 9.10361C8.17297 9.10361 8.64133 9.10361 9.12346 9.10361C9.13724 8.91196 9.13724 8.74905 9.15101 8.58615C9.17856 7.59433 9.12346 6.57856 9.2704 5.60112C9.61018 3.25334 11.2999 1.74406 13.5774 1.66261C13.9402 1.64823 14.3167 1.64823 14.684 1.64823C15.0881 1.64823 15.4922 1.67698 15.8963 1.67698C16.0524 1.67698 16.2223 1.70573 16.3784 1.70573H16.3922C16.7549 1.70573 16.9248 1.86864 16.9248 2.24716C16.8881 3.19106 16.8881 4.111 16.8743 5.06448Z" fill="currentColor"/>
</svg>
