<svg width="23" height="24" viewBox="0 0 23 24" xmlns="http://www.w3.org/2000/svg">
<path d="M16.7873 0H6.2127C2.78965 0 0 2.91094 0 6.48281V17.5125C0 21.0891 2.78965 24 6.2127 24H16.7828C20.2104 24 22.9955 21.0891 22.9955 17.5172V6.48281C23 2.91094 20.2104 0 16.7873 0ZM21.1402 17.5172C21.1402 20.025 19.1861 22.0641 16.7828 22.0641H6.2127C3.80937 22.0641 1.85527 20.025 1.85527 17.5172V6.48281C1.85527 3.975 3.80937 1.93594 6.2127 1.93594H16.7828C19.1861 1.93594 21.1402 3.975 21.1402 6.48281V17.5172Z" fill="currentColor"/>
<path d="M16.6498 11.1609C16.488 10.0125 15.9849 8.96719 15.1943 8.14688C14.4082 7.32656 13.4064 6.80156 12.3058 6.62813C11.8027 6.54844 11.2951 6.54844 10.792 6.62813C9.43082 6.83906 8.22691 7.58906 7.40484 8.74688C6.58277 9.90469 6.24137 11.3203 6.44351 12.7406C6.64566 14.1609 7.36441 15.4172 8.47398 16.275C9.37242 16.9688 10.4371 17.3344 11.5377 17.3344C11.7937 17.3344 12.0498 17.3156 12.3058 17.2734C13.667 17.0625 14.8709 16.3125 15.6929 15.1547C16.5105 14.0016 16.8519 12.5859 16.6498 11.1609ZM12.0318 15.3562C11.1603 15.4922 10.2888 15.2625 9.58355 14.7141C8.87828 14.1656 8.41558 13.3641 8.28531 12.4547C8.15504 11.5453 8.37516 10.6359 8.90074 9.9C9.42633 9.15937 10.1945 8.68125 11.066 8.54531C11.2277 8.52188 11.3894 8.50781 11.5511 8.50781C11.7129 8.50781 11.8746 8.52188 12.0363 8.54531C13.4828 8.77031 14.6013 9.93281 14.817 11.4469C15.0775 13.3266 13.8332 15.0797 12.0318 15.3562Z" fill="currentColor"/>
<path d="M17.9686 5.25005C17.7934 5.06724 17.5553 4.96411 17.3127 4.96411C17.0701 4.96411 16.8275 5.06724 16.6568 5.25005C16.4816 5.43286 16.3828 5.6813 16.3828 5.93443C16.3828 6.18755 16.4816 6.44068 16.6568 6.6188C16.832 6.80162 17.0701 6.90474 17.3127 6.90474C17.5553 6.90474 17.7979 6.80162 17.9686 6.6188C18.1438 6.43599 18.2426 6.18755 18.2426 5.93443C18.2426 5.67661 18.1438 5.42817 17.9686 5.25005Z" fill="currentColor"/>
</svg>
