<svg width="30" height="30" viewBox="0 0 30 30" xmlns="http://www.w3.org/2000/svg">
<path d="M19.1119 4.13845L23.0247 0.924368C23.402 0.60296 23.975 0.672832 24.2824 1.03616C24.6038 1.41347 24.5339 1.98641 24.1706 2.29384L20.3696 5.42408C19.4333 6.41625 20.2159 8.06521 21.0823 8.93162C21.9487 9.79802 23.6116 10.5946 24.5898 9.6443L27.6921 5.8433C28.0135 5.466 28.5725 5.4101 28.9498 5.73151C29.3271 6.05292 29.383 6.61189 29.0616 6.98919L25.9034 10.8461L25.8336 10.916C24.2125 12.537 21.795 11.964 20.146 10.5666L11.8221 18.8903C12.1435 19.4633 12.0457 20.2039 11.5706 20.679L5.56164 26.6879C4.97473 27.2749 4.0105 27.2609 3.43756 26.6879L3.0882 26.3386C2.50128 25.7517 2.48731 24.7874 3.07423 24.2005L9.08316 18.1916C9.57226 17.7025 10.2989 17.6187 10.8719 17.9401L19.2377 9.57443C17.994 7.93944 17.5748 5.67561 19.1119 4.13845ZM3.64717 24.5499C3.21397 24.9831 3.21397 25.6818 3.64717 26.115C4.08037 26.5482 4.77909 26.5482 5.21229 26.115C5.64549 25.6818 5.64549 24.9831 5.21229 24.5499C4.79306 24.1027 4.09435 24.1027 3.64717 24.5499Z" fill="currentColor"/>
<path d="M13.6996 7.10922L6.69853 0.108114L0.186523 6.62012L7.18763 13.6212L9.9685 10.8403L18.1489 19.0205C17.8275 19.5935 17.9253 20.3341 18.4004 20.8092L24.4094 26.8182C24.9963 27.4051 25.9606 27.3912 26.5335 26.8182L26.8829 26.4689C27.4698 25.8819 27.4698 24.9317 26.8829 24.3448L20.8739 18.3358C20.3848 17.8467 19.6581 17.7628 19.0852 18.0842L10.9048 9.90407L13.6996 7.10922ZM5.32905 3.99296L6.69853 2.62348L11.1843 7.10922L9.81479 8.47869L5.32905 3.99296ZM8.5571 9.73638L7.18762 11.1059L2.70189 6.62012L4.07137 5.25064L8.5571 9.73638ZM26.3239 24.6801C26.7571 25.1133 26.7571 25.8121 26.3239 26.2453C25.8907 26.6785 25.192 26.6785 24.7588 26.2453C24.3256 25.8121 24.3256 25.1133 24.7588 24.6801C25.192 24.2469 25.8767 24.233 26.3239 24.6801Z" fill="currentColor"/>
</svg>
