<svg width="18" height="18" viewBox="0 0 18 18" xmlns="http://www.w3.org/2000/svg">
<path fill-rule="evenodd" clip-rule="evenodd" d="M0 8.1C0 3.62649 3.62645 0 8.0999 0C12.5733 0 16.1998 3.62649 16.1998 8.1C16.1998 10.0125 15.537 11.7702 14.4285 13.1559L17.7364 16.4636C18.0879 16.815 18.0879 17.3849 17.7364 17.7364C17.385 18.0879 16.8151 18.0879 16.4636 17.7364L13.1558 14.4287C11.7701 15.5372 10.0124 16.2 8.0999 16.2C3.62645 16.2 0 12.5735 0 8.1ZM8.0999 1.8C4.62055 1.8 1.79998 4.6206 1.79998 8.1C1.79998 11.5794 4.62055 14.4 8.0999 14.4C11.5792 14.4 14.3998 11.5794 14.3998 8.1C14.3998 4.6206 11.5792 1.8 8.0999 1.8Z" fill="currentColor"/>
</svg>
