<svg width="24" height="24" viewBox="0 0 24 24" xmlns="http://www.w3.org/2000/svg">
<path d="M19.471 4.00146C19.2109 4.01262 18.9722 4.08643 18.7626 4.16798C18.5688 4.24326 17.8732 4.53176 16.7654 4.9902C15.6577 5.44864 14.1898 6.05647 12.6253 6.70575C9.49607 8.00431 5.97968 9.46503 4.17788 10.2132C4.11601 10.2386 3.86472 10.3145 3.58718 10.5237C3.309 10.7333 3 11.1883 3 11.6859C3 12.0873 3.20308 12.4961 3.4483 12.7301C3.69352 12.9642 3.94205 13.0736 4.14976 13.1551C4.75741 13.3939 6.63519 14.1338 7.45135 14.4561C7.73727 15.3016 8.40881 17.293 8.56594 17.7831H8.56419C8.69201 18.1821 8.81661 18.4421 8.98963 18.6591C9.07614 18.7676 9.17941 18.866 9.30608 18.9436C9.35468 18.9734 9.40849 18.9965 9.46254 19.0182C9.47008 19.0214 9.47784 19.0221 9.4854 19.0251L9.4643 19.0199C9.47997 19.0261 9.49404 19.0353 9.51001 19.0407C9.53604 19.0496 9.55408 19.0493 9.58912 19.0564C9.71244 19.0938 9.83554 19.1188 9.94952 19.1188C10.4388 19.1188 10.7389 18.8569 10.7389 18.8569L10.7582 18.843L12.8714 17.0789L15.4592 19.4397C15.5055 19.5042 15.8755 20 16.7338 20C17.2452 20 17.6512 19.752 17.9099 19.49C18.1686 19.2281 18.3297 18.96 18.4022 18.5967V18.5932V18.5915C18.4525 18.3336 20.9372 6.02751 20.9372 6.02751L20.932 6.04833C21.0091 5.70875 21.0318 5.38036 20.9408 5.04571C20.8497 4.71105 20.6039 4.38446 20.3079 4.21308C20.0119 4.0417 19.7311 3.99029 19.471 4.00146ZM19.1159 5.94598C19.0183 6.42948 16.8071 17.3906 16.6635 18.1179L14.0932 15.7744C13.4307 15.1701 12.3976 15.1488 11.7093 15.7224L10.3978 16.8169L11.0975 14.1179C11.0975 14.1179 15.9244 9.29694 16.2152 9.01629C16.4492 8.79159 16.4982 8.71282 16.4982 8.63467C16.4982 8.53076 16.444 8.456 16.3189 8.456C16.2064 8.456 16.0536 8.56238 15.9726 8.61212C14.9388 9.24805 10.5126 11.737 8.36904 12.94C8.28853 12.8925 8.20933 12.8431 8.12116 12.8082C7.41783 12.5305 6.06599 11.9957 5.2749 11.6842C7.14198 10.9088 10.3425 9.58021 13.3232 8.34325C14.8875 7.69408 16.3549 7.0857 17.4616 6.62769C18.3958 6.24108 18.8831 6.0409 19.1159 5.94598ZM16.6353 18.2463H16.6371L16.6353 18.2532C16.6368 18.2456 16.6343 18.2517 16.6353 18.2463Z" fill="currentColor"/>
</svg>
