<svg width="24" height="24" viewBox="0 0 24 24" xmlns="http://www.w3.org/2000/svg">
<path fill-rule="evenodd" clip-rule="evenodd" d="M20.0866 3.90667C18.2051 2.0337 15.7051 1 13.0423 1C7.55404 1 3.08464 5.44589 3.08464 10.9093C3.08138 12.6559 3.54036 14.3603 4.41276 15.8639L3 21L8.27995 19.6196C9.73177 20.4102 11.3724 20.825 13.0391 20.8283H13.0423C18.5306 20.8283 22.9967 16.3824 23 10.9157C23 8.26831 21.9648 5.77965 20.0866 3.90667ZM13.0423 19.1529H13.0391C11.5547 19.1529 10.0964 18.7544 8.82682 18.0058L8.52409 17.8276L5.38932 18.6442L6.22591 15.6047L6.0306 15.2936C5.20052 13.9812 4.76432 12.4647 4.76432 10.9093C4.76432 6.36941 8.47852 2.67531 13.0456 2.67531C15.2559 2.67531 17.3327 3.53403 18.8952 5.08944C20.4577 6.64809 21.3171 8.71549 21.3171 10.9157C21.3171 15.4588 17.6029 19.1529 13.0423 19.1529ZM17.5801 12.9831C17.3327 12.86 16.1087 12.2605 15.8809 12.1795C15.653 12.0953 15.487 12.0564 15.321 12.3027C15.1549 12.5522 14.6797 13.1095 14.5332 13.2748C14.39 13.4368 14.2435 13.4595 13.9961 13.3364C13.7454 13.2132 12.9447 12.9507 11.9941 12.105C11.2552 11.4504 10.7539 10.6371 10.6107 10.3908C10.4642 10.1413 10.5944 10.0084 10.7181 9.88529C10.832 9.77511 10.9688 9.59689 11.0924 9.45107C11.2161 9.30849 11.2585 9.2048 11.3431 9.03953C11.4245 8.87427 11.3822 8.72845 11.3203 8.60531C11.2585 8.48218 10.7604 7.26053 10.5521 6.76474C10.3503 6.28192 10.1452 6.34997 9.99219 6.34025C9.84896 6.33377 9.68294 6.33377 9.51693 6.33377C9.35091 6.33377 9.08073 6.39533 8.85287 6.64485C8.625 6.89112 7.98372 7.4906 7.98372 8.70901C7.98372 9.92741 8.87565 11.1069 8.99935 11.2722C9.12305 11.4342 10.7539 13.9358 13.2507 15.0084C13.8431 15.2644 14.3053 15.4167 14.6667 15.5301C15.2624 15.7181 15.806 15.6922 16.2357 15.6306C16.7142 15.5593 17.707 15.0311 17.9154 14.4511C18.1204 13.8743 18.1204 13.3785 18.0586 13.2748C17.9967 13.1711 17.8307 13.1095 17.5801 12.9831Z" fill="currentColor"/>
</svg>
