<svg width="33" height="24" viewBox="0 0 33 24" xmlns="http://www.w3.org/2000/svg">
<path d="M31.8798 6.22345C31.6797 2.87724 28.8282 0.139425 25.5264 0.0887251L21.074 0.0380252C18.3225 -0.0126751 13.77 -0.0126751 10.9685 0.0380252L6.41599 0.0887251C3.11419 0.139425 0.31267 2.87724 0.112561 6.22345V6.47695C-0.0375204 9.31616 -0.0375204 13.9299 0.112561 16.7691V17.0226C0.262643 20.3688 3.11419 23.1066 6.41599 23.1573L10.9685 23.2587C12.3692 23.3094 14.1702 23.3094 16.0212 23.3094C17.8722 23.3094 19.7232 23.3094 21.124 23.2587L25.5764 23.1573C28.8782 23.1066 31.7297 20.3181 31.9299 17.0226V16.7184C32.0799 13.8792 32.0799 9.26546 31.9299 6.42625C31.9299 6.47695 31.8798 6.22345 31.8798 6.22345ZM29.8787 16.6677V16.9212C29.7287 19.152 27.7276 21.1293 25.5264 21.1293L21.074 21.2307C18.3225 21.2814 13.77 21.2814 11.0185 21.2307L6.46601 21.1293C4.21479 21.0786 2.26373 19.2027 2.16368 16.9212V16.6677C2.01359 13.8792 2.01359 9.36686 2.11365 6.57835V6.32485C2.2137 4.04334 4.16476 2.16743 6.41599 2.11673L10.9685 2.06603C12.3192 2.06603 14.1202 2.01533 15.9212 2.01533C17.7722 2.01533 19.6232 2.01533 21.0239 2.06603L25.4763 2.11673C27.7276 2.16743 29.6786 4.04334 29.8287 6.32485V6.57835C30.0288 9.36686 30.0288 13.8792 29.8787 16.6677Z" fill="currentColor"/>
<path d="M21.3724 10.4317L13.368 6.17287C13.0678 6.02077 12.6676 6.02077 12.3675 6.22357C12.0673 6.42637 11.8672 6.73057 11.8672 7.08548V15.6031C11.8672 15.958 12.0673 16.3129 12.3675 16.465C12.5175 16.5664 12.7176 16.6171 12.8677 16.6171C13.0178 16.6171 13.1679 16.5664 13.318 16.5157L21.3223 12.2569C21.6725 12.1048 21.8726 11.7499 21.8726 11.3443C21.8726 10.9387 21.7225 10.5838 21.3724 10.4317ZM13.9183 13.8793V8.75858L18.7209 11.3443L13.9183 13.8793Z" fill="currentColor"/>
</svg>
