<svg width="24" height="24" viewBox="0 0 24 24" xmlns="http://www.w3.org/2000/svg">
<path fill-rule="evenodd" clip-rule="evenodd" d="M0 10.8C0 4.83532 4.83526 0 10.7999 0C16.7645 0 21.5997 4.83532 21.5997 10.8C21.5997 13.35 20.716 15.6936 19.2381 17.5412L23.6485 21.9514C24.1171 22.4201 24.1172 23.1799 23.6486 23.6485C23.18 24.1171 22.4202 24.1172 21.9515 23.6486L17.541 19.2383C15.6934 20.7162 13.3499 21.6 10.7999 21.6C4.83526 21.6 0 16.7647 0 10.8ZM10.7999 2.4C6.16073 2.4 2.39997 6.16081 2.39997 10.8C2.39997 15.4392 6.16073 19.2 10.7999 19.2C15.439 19.2 19.1998 15.4392 19.1998 10.8C19.1998 6.16081 15.439 2.4 10.7999 2.4Z" fill="currentColor"/>
</svg>
