<svg width="165" height="61" viewBox="0 0 165 61" fill="none" xmlns="http://www.w3.org/2000/svg">
<path d="M1 36H46V46C46 46.5523 45.5523 47 45 47H2C1.44772 47 1 46.5523 1 46V36Z" fill="white" stroke="black" stroke-width="2"/>
<rect x="13" y="31" width="7" height="5" fill="white" stroke="black" stroke-width="2"/>
<rect x="20" y="31" width="7" height="5" fill="white" stroke="black" stroke-width="2"/>
<rect x="27" y="31" width="7" height="5" fill="white" stroke="black" stroke-width="2"/>
<path d="M42.9291 47C42.4439 50.3923 39.5265 53 36 53H12C8.47353 53 5.55612 50.3923 5.07089 47H42.9291Z" fill="white" stroke="black" stroke-width="2"/>
<path d="M1 36H13V29C13 28.4477 12.5523 28 12 28H2C1.44772 28 1 28.4477 1 29V36Z" fill="white" stroke="black" stroke-width="2"/>
<path d="M34 36H46V29C46 28.4477 45.5523 28 45 28H35C34.4477 28 34 28.4477 34 29V36Z" fill="white" stroke="black" stroke-width="2"/>
<path d="M30 53H38V59C38 59.5523 37.5523 60 37 60H31C30.4477 60 30 59.5523 30 59V53Z" fill="white" stroke="black" stroke-width="2"/>
<path d="M12 53H20V59C20 59.5523 19.5523 60 19 60H13C12.4477 60 12 59.5523 12 59V53Z" fill="white" stroke="black" stroke-width="2"/>
<rect x="5" y="40" width="3" height="2" fill="white"/>
<rect x="11" y="40" width="3" height="2" fill="white"/>
<path d="M21 9.00307C20.7368 8.90537 18 11.1525 18 13.4973C18 15.8421 20.7368 16.526 20.7368 18.9685C20.7368 20.9225 19.1228 23.137 18.3158 24" stroke="#191919" stroke-width="2" stroke-linecap="round"/>
<path d="M27 9.00307C26.8246 8.90537 25 11.1525 25 13.4973C25 15.8421 26.8246 16.526 26.8246 18.9685C26.8246 20.9225 25.7485 23.137 25.2105 24" stroke="#191919" stroke-width="2" stroke-linecap="round"/>
<path d="M34 9.00307C33.7368 8.90537 31 11.1525 31 13.4973C31 15.8421 33.7368 16.526 33.7368 18.9685C33.7368 20.9225 32.1228 23.137 31.3158 24" stroke="#191919" stroke-width="2" stroke-linecap="round"/>
<mask id="path-15-inside-1_126_301" fill="white">
<path fill-rule="evenodd" clip-rule="evenodd" d="M125 26C123.895 26 123 26.8954 123 28V43C123 50.9351 128.135 57.6709 135.263 60.0663C136.656 60.0224 138.07 60 139.5 60C141.848 60 144.152 60.0605 146.397 60.1769C153.701 57.8841 159 51.0608 159 43V28C159 26.8954 158.105 26 157 26H125Z"/>
</mask>
<path fill-rule="evenodd" clip-rule="evenodd" d="M125 26C123.895 26 123 26.8954 123 28V43C123 50.9351 128.135 57.6709 135.263 60.0663C136.656 60.0224 138.07 60 139.5 60C141.848 60 144.152 60.0605 146.397 60.1769C153.701 57.8841 159 51.0608 159 43V28C159 26.8954 158.105 26 157 26H125Z" fill="white"/>
<path d="M135.263 60.0663L134.625 61.9621L134.966 62.0766L135.325 62.0653L135.263 60.0663ZM146.397 60.1769L146.294 62.1742L146.653 62.1928L146.996 62.0851L146.397 60.1769ZM125 28V28V24C122.791 24 121 25.7909 121 28H125ZM125 43V28H121V43H125ZM135.9 58.1704C129.561 56.0404 125 50.0503 125 43H121C121 51.8198 126.708 59.3013 134.625 61.9621L135.9 58.1704ZM135.325 62.0653C136.698 62.0221 138.091 62 139.5 62V58C138.049 58 136.614 58.0228 135.2 58.0672L135.325 62.0653ZM139.5 62C141.814 62 144.084 62.0596 146.294 62.1742L146.501 58.1796C144.221 58.0614 141.883 58 139.5 58V62ZM157 43C157 50.1622 152.293 56.2301 145.798 58.2687L146.996 62.0851C155.11 59.5381 161 51.9595 161 43H157ZM157 28V43H161V28H157ZM157 28H161C161 25.7909 159.209 24 157 24V28ZM125 28H157V24H125V28Z" fill="black" mask="url(#path-15-inside-1_126_301)"/>
<rect x="124" y="27" width="34" height="10" rx="1" fill="white" stroke="black" stroke-width="2"/>
<path d="M163.826 28.0815C163.874 27.499 163.414 27 162.83 27H158V33.3665L163.133 30.7455C163.442 30.5879 163.647 30.2817 163.675 29.9363L163.826 28.0815Z" fill="white" stroke="black" stroke-width="2"/>
<path d="M118.174 28.0815C118.126 27.499 118.586 27 119.17 27H124V33.3665L118.867 30.7455C118.558 30.5879 118.353 30.2817 118.325 29.9363L118.174 28.0815Z" fill="white" stroke="black" stroke-width="2"/>
<path d="M124 23.3529C124 17.0829 129.083 12 135.353 12H146.647C152.917 12 158 17.0829 158 23.3529C158 23.7103 157.71 24 157.353 24H124.647C124.29 24 124 23.7103 124 23.3529Z" fill="white" stroke="black" stroke-width="2"/>
<path d="M137 9C137 8.44772 137.448 8 138 8H144C144.552 8 145 8.44772 145 9V12H137V9Z" fill="white" stroke="black" stroke-width="2"/>
<path d="M86.9886 22.0019C86.896 21.9766 86.1306 23.0034 86.2729 23.9304C86.4151 24.8575 87.3583 24.9895 87.5065 25.9552C87.6251 26.7278 87.2277 27.6849 87.0141 28.067" stroke="black" stroke-linecap="round"/>
<path d="M89.9886 22.0019C89.896 21.9766 89.1306 23.0034 89.2729 23.9304C89.4151 24.8575 90.3583 24.9895 90.5065 25.9552C90.6251 26.7278 90.2277 27.6849 90.0141 28.067" stroke="black" stroke-linecap="round"/>
<path d="M92.9886 22.0019C92.896 21.9766 92.1306 23.0034 92.2729 23.9304C92.4151 24.8575 93.3583 24.9895 93.5065 25.9552C93.6251 26.7278 93.2277 27.6849 93.0141 28.067" stroke="black" stroke-linecap="round"/>
<path d="M69 44C69 50.0751 73.9249 55 80 55H88C94.0751 55 99 50.0751 99 44V35C99 34.4477 98.5523 34 98 34H70C69.4477 34 69 34.4477 69 35V44Z" fill="white" stroke="black" stroke-width="2"/>
<path d="M84 31C84 30.4477 84.4477 30 85 30H94C94.5523 30 95 30.4477 95 31V34H84V31Z" fill="white" stroke="black" stroke-width="2"/>
<path d="M69.1957 32.3651C65.2925 28.1999 65.5049 21.6591 69.6702 17.7559L76.4771 11.3772C80.6424 7.47403 87.1831 7.68647 91.0863 11.8517C91.4222 12.2101 91.4039 12.7729 91.0455 13.1087L70.4526 32.4059C70.0943 32.7418 69.5315 32.7235 69.1957 32.3651Z" fill="white" stroke="black" stroke-width="2"/>
<path d="M68.0972 15.1604C67.7196 14.7574 67.7402 14.1245 68.1432 13.7469L71.7916 10.328C72.1946 9.95036 72.8274 9.97091 73.2051 10.3739L75.2235 12.5278L70.1156 17.3143L68.0972 15.1604Z" fill="white" stroke="black" stroke-width="2"/>
<mask id="path-29-inside-2_126_301" fill="white">
<path d="M62 38C62 37.4477 62.4477 37 63 37H68C68.5523 37 69 37.4477 69 38V41C69 41.5523 68.5523 42 68 42H63C62.4477 42 62 41.5523 62 41V38Z"/>
</mask>
<path d="M62 38C62 37.4477 62.4477 37 63 37H68C68.5523 37 69 37.4477 69 38V41C69 41.5523 68.5523 42 68 42H63C62.4477 42 62 41.5523 62 41V38Z" fill="white" stroke="black" stroke-width="4" mask="url(#path-29-inside-2_126_301)"/>
<mask id="path-30-inside-3_126_301" fill="white">
<path d="M106 38C106 37.4477 105.552 37 105 37H100C99.4477 37 99 37.4477 99 38V41C99 41.5523 99.4477 42 100 42H105C105.552 42 106 41.5523 106 41V38Z"/>
</mask>
<path d="M106 38C106 37.4477 105.552 37 105 37H100C99.4477 37 99 37.4477 99 38V41C99 41.5523 99.4477 42 100 42H105C105.552 42 106 41.5523 106 41V38Z" fill="white" stroke="black" stroke-width="4" mask="url(#path-30-inside-3_126_301)"/>
<mask id="path-31-inside-4_126_301" fill="white">
<path d="M53 38C53 37.4477 53.4477 37 54 37H60C60.5523 37 61 37.4477 61 38V41C61 41.5523 60.5523 42 60 42H54C53.4477 42 53 41.5523 53 41V38Z"/>
</mask>
<path d="M53 38C53 37.4477 53.4477 37 54 37H60C60.5523 37 61 37.4477 61 38V41C61 41.5523 60.5523 42 60 42H54C53.4477 42 53 41.5523 53 41V38Z" fill="white" stroke="black" stroke-width="4" mask="url(#path-31-inside-4_126_301)"/>
<mask id="path-32-inside-5_126_301" fill="white">
<path d="M115 38C115 37.4477 114.552 37 114 37H108C107.448 37 107 37.4477 107 38V41C107 41.5523 107.448 42 108 42H114C114.552 42 115 41.5523 115 41V38Z"/>
</mask>
<path d="M115 38C115 37.4477 114.552 37 114 37H108C107.448 37 107 37.4477 107 38V41C107 41.5523 107.448 42 108 42H114C114.552 42 115 41.5523 115 41V38Z" fill="white" stroke="black" stroke-width="4" mask="url(#path-32-inside-5_126_301)"/>
<circle cx="84" cy="46" r="4" fill="white" stroke="black" stroke-width="2"/>
<circle cx="141" cy="47" r="4" fill="white" stroke="black" stroke-width="2"/>
<circle cx="141" cy="18" r="3" fill="white" stroke="black" stroke-width="2"/>
<path d="M63 58.7613V53.7203C63 53.411 63.0717 53.1059 63.2096 52.829L68.6 42L69 49L66.0959 53.3675C65.902 53.659 65.7881 53.9964 65.7655 54.3458L65.4749 58.8412C65.4328 59.4929 64.8919 60 64.2387 60C63.5546 60 63 59.4454 63 58.7613Z" fill="white" stroke="black" stroke-width="2"/>
<path d="M105 58.7613V53.7203C105 53.411 104.928 53.1059 104.79 52.829L99.4 42L99 49L101.904 53.3675C102.098 53.659 102.212 53.9964 102.234 54.3458L102.525 58.8412C102.567 59.4929 103.108 60 103.761 60C104.445 60 105 59.4454 105 58.7613Z" fill="white" stroke="black" stroke-width="2"/>
<path d="M62 38L63.7143 34H68V38" stroke="black" stroke-width="2"/>
<path d="M106 38L104 34H99V38" stroke="black" stroke-width="2"/>
<path d="M54 38L57.5556 34H62L60.2222 38" stroke="black" stroke-width="2"/>
<path d="M114 38L110.444 34H106L107.778 38" stroke="black" stroke-width="2"/>
</svg>
