<svg width="48" height="22" viewBox="0 0 48 22" fill="none" xmlns="http://www.w3.org/2000/svg">
<g clip-path="url(#clip0_1_3480)">
<path fill-rule="evenodd" clip-rule="evenodd" d="M10.2509 0.392578H43.926C46.0607 0.392578 47.8307 1.84011 47.8261 3.65278V18.1759C47.8261 19.9581 46.0927 21.4361 43.926 21.4361H10.2555C8.9874 21.4361 7.81965 20.9318 7.08523 20.0973L0.749236 12.8508C-0.249745 11.7076 -0.249745 10.147 0.749236 9.00384L7.08067 1.75751C7.81509 0.922903 8.98284 0.41866 10.2509 0.392578ZM7.65217 11.8709C8.18045 11.8709 8.6087 11.4426 8.6087 10.9144C8.6087 10.3861 8.18045 9.95784 7.65217 9.95784C7.12391 9.95784 6.69565 10.3861 6.69565 10.9144C6.69565 11.4426 7.12391 11.8709 7.65217 11.8709Z" fill="white"/>
<mask id="mask0_1_3480" style="mask-type:luminance" maskUnits="userSpaceOnUse" x="0" y="0" width="48" height="22">
<path fill-rule="evenodd" clip-rule="evenodd" d="M10.2509 0.392578H43.926C46.0607 0.392578 47.8307 1.84011 47.8261 3.65278V18.1759C47.8261 19.9581 46.0927 21.4361 43.926 21.4361H10.2555C8.9874 21.4361 7.81965 20.9318 7.08523 20.0973L0.749236 12.8508C-0.249745 11.7076 -0.249745 10.147 0.749236 9.00384L7.08067 1.75751C7.81509 0.922903 8.98284 0.41866 10.2509 0.392578ZM7.65217 11.8709C8.18045 11.8709 8.6087 11.4426 8.6087 10.9144C8.6087 10.3861 8.18045 9.95784 7.65217 9.95784C7.12391 9.95784 6.69565 10.3861 6.69565 10.9144C6.69565 11.4426 7.12391 11.8709 7.65217 11.8709Z" fill="#C4C4C4"/>
</mask>
<g mask="url(#mask0_1_3480)">
<path d="M10.2504 0.392069V-0.564453H10.2406L10.2307 -0.56425L10.2504 0.392069ZM47.8256 3.65227L46.869 3.64986V3.65227H47.8256ZM7.08472 20.0967L6.36464 20.7263L6.36663 20.7286L7.08472 20.0967ZM7.08016 1.757L6.36206 1.12512L6.35986 1.12765L7.08016 1.757ZM43.9254 -0.564453H10.2504V1.34859H43.9254V-0.564453ZM48.7821 3.65467C48.7884 1.1517 46.4126 -0.564453 43.9254 -0.564453V1.34859C45.7079 1.34859 46.8718 2.5275 46.869 3.64986L48.7821 3.65467ZM48.7821 18.1754V3.65227H46.869V18.1754H48.7821ZM43.9254 22.3921C46.4586 22.3921 48.7821 20.6343 48.7821 18.1754H46.869C46.869 19.2808 45.7257 20.4791 43.9254 20.4791V22.3921ZM10.255 22.3921H43.9254V20.4791H10.255V22.3921ZM6.36663 20.7286C7.30321 21.7929 8.74475 22.3921 10.255 22.3921V20.4791C9.22903 20.4791 8.33506 20.0697 7.80282 19.4648L6.36663 20.7286ZM0.0284436 13.4797L6.36464 20.7263L7.8048 19.4671L1.4688 12.2207L0.0284436 13.4797ZM0.0284438 8.37394C-1.28552 9.87765 -1.28552 11.9761 0.0284436 13.4797L1.4688 12.2207C0.784811 11.438 0.785012 10.4155 1.469 9.63268L0.0284438 8.37394ZM6.35986 1.12765L0.0284438 8.37394L1.469 9.63268L7.80047 2.38636L6.35986 1.12765ZM10.2307 -0.56425C8.73496 -0.533486 7.2985 0.0609089 6.36206 1.12512L7.79826 2.38889C8.33063 1.78388 9.2297 1.36979 10.2701 1.34838L10.2307 -0.56425ZM7.65166 10.9138V12.8269C8.70821 12.8269 9.5647 11.9703 9.5647 10.9138H7.65166ZM7.65166 10.9138H9.5647C9.5647 9.85728 8.70821 9.00077 7.65166 9.00077V10.9138ZM7.65166 10.9138V9.00077C6.59512 9.00077 5.73862 9.85728 5.73862 10.9138H7.65166ZM7.65166 10.9138H5.73862C5.73862 11.9703 6.59512 12.8269 7.65166 12.8269V10.9138Z" fill="#828282"/>
</g>
</g>
<defs>
<clipPath id="clip0_1_3480">
<rect width="47.8261" height="22" fill="white"/>
</clipPath>
</defs>
</svg>
