<svg width="181" height="20" viewBox="0 0 181 20" fill="none" xmlns="http://www.w3.org/2000/svg">
<rect x="121" y="13" width="60" height="1" fill="#EE2600"/>
<rect y="13" width="60" height="1" fill="#EE2600"/>
<path d="M83 20V14.697C83 12.2727 84.1381 10 86.1297 8.71212L100 0V5.15152C100 7.57576 98.7908 9.77273 96.8703 11.0606L83 20Z" fill="url(#paint0_linear_1_3553)"/>
<path d="M70 19V15.8182C70 14.3636 70.6695 13 71.841 12.2273L80 7V10.0909C80 11.5455 79.2887 12.8636 78.159 13.6364L70 19Z" fill="url(#paint1_linear_1_3553)"/>
<path d="M100 19V15.8182C100 14.3636 100.736 13 102.025 12.2273L111 7V10.0909C111 11.5455 110.218 12.8636 108.975 13.6364L100 19Z" fill="url(#paint2_linear_1_3553)"/>
<defs>
<linearGradient id="paint0_linear_1_3553" x1="82.5193" y1="19.4727" x2="101.534" y2="1.62677" gradientUnits="userSpaceOnUse">
<stop stop-color="#E32021"/>
<stop offset="1" stop-color="#EE8543"/>
</linearGradient>
<linearGradient id="paint1_linear_1_3553" x1="69.7172" y1="18.6836" x2="81.1095" y2="8.20122" gradientUnits="userSpaceOnUse">
<stop stop-color="#E32021"/>
<stop offset="1" stop-color="#EE8543"/>
</linearGradient>
<linearGradient id="paint2_linear_1_3553" x1="99.689" y1="18.6836" x2="111.12" y2="7.11386" gradientUnits="userSpaceOnUse">
<stop stop-color="#E32021"/>
<stop offset="1" stop-color="#EE8543"/>
</linearGradient>
</defs>
</svg>
