<svg width="84" height="133" viewBox="0 0 84 133" fill="none" xmlns="http://www.w3.org/2000/svg">
<path d="M41.097 106.596C64.106 106.596 78.603 94.36 78.603 75.208C78.603 57.386 65.037 46.347 50.008 46.347C42.161 46.347 35.245 49.273 30.989 53.396V36.239H72.485V16.289H8.113V68.691L23.94 72.548C28.861 67.893 34.447 65.898 41.496 65.898C50.673 65.898 55.328 70.154 55.328 76.139C55.328 81.592 50.54 86.38 40.831 86.38C32.319 86.38 23.94 83.321 17.822 77.735L5.32 93.695C13.566 101.808 25.403 106.596 41.097 106.596Z" fill="#333333"/>
<path d="M66 80.8875L76.5 75.3875L78.5 77.3875L83 74.3875L74 58.3875H72L69 61.3875V64.3875L63.5 65.3875L60.5 64.3875H54.5L49 66.8875L43 62.8875L32.5 66.8875L29.5 65.3875H25.5L28 62.8875V60.3875L23.5 58.3875L13 73.3875L18 76.3875L20.5 74.3875L28 79.3875L25.5 82.3875L28 84.8875L29.5 87.3875L32.5 88.8875L33 90.8875L34.5 92.3875L37.5 91.8875L38.5 92.8875L41.5 94.3875L44.5 92.3875L49 94.3875L52 92.8875V90.8875L55.5 92.3875L57.5 90.8875V89.3875H60.5L62 87.3875V84.8875H64.5L66 83.3875V80.8875Z" fill="white"/>
<path d="M55.7995 81.4547L61.2563 84.8949C61.8375 85.3694 64.0914 86.0693 65.1946 84.6695C66.4877 83.2697 66.1555 81.7632 65.076 80.8853L53.6405 73.6492C49.2157 76.6267 45.4434 75.8319 43.0116 74.5863C41.4813 73.8034 41.4339 71.6325 42.9049 70.7547L52.5491 64.9895C57.9822 61.8815 63.6762 66.3774 63.6762 66.3774L69.3347 63.9456L75.8828 75.1083L65.0879 80.8735" stroke="#231F20" stroke-width="2" stroke-miterlimit="10" stroke-linecap="round" stroke-linejoin="round"/>
<path d="M48.8953 67.1959L46.4991 65.3335C44.7316 63.9574 42.6082 62.9372 39.8442 63.9811L31.8844 66.9586L26.6767 64.1116L19.832 74.2897L27.7325 79.616" stroke="#231F20" stroke-width="2" stroke-miterlimit="10" stroke-linecap="round" stroke-linejoin="round"/>
<path d="M32.5121 82.0952L29.9498 84.3135C28.9889 85.1439 27.5298 85.0371 26.6994 84.0762L26.4147 83.7559C25.5844 82.7951 25.6911 81.336 26.652 80.5056L29.2143 78.2873C30.1752 77.4569 31.6343 77.5637 32.4647 78.5246L32.7494 78.8448C33.5797 79.8176 33.473 81.2648 32.5121 82.0952Z" stroke="#231F20" stroke-width="2" stroke-miterlimit="10" stroke-linecap="round" stroke-linejoin="round"/>
<path d="M36.8054 85.0371L33.2467 88.1214C32.2858 88.9517 30.8267 88.845 29.9963 87.8841L29.7116 87.5638C28.8812 86.6029 28.988 85.1557 29.9489 84.3135L33.5076 81.2292C34.4685 80.3988 35.9157 80.5056 36.758 81.4665L37.0427 81.7867C37.8731 82.7476 37.7663 84.2067 36.8054 85.0371Z" stroke="#231F20" stroke-width="2" stroke-miterlimit="10" stroke-linecap="round" stroke-linejoin="round"/>
<path d="M40.462 88.5366L36.5592 91.9174C35.5983 92.7478 34.1392 92.641 33.3088 91.6802L33.0241 91.3599C32.1937 90.399 32.3005 88.9399 33.2614 88.1095L37.1642 84.7287C38.125 83.8983 39.5841 84.0051 40.4145 84.966L40.6992 85.2863C41.5177 86.2471 41.4228 87.7062 40.462 88.5366Z" stroke="#231F20" stroke-width="2" stroke-miterlimit="10" stroke-linecap="round" stroke-linejoin="round"/>
<path d="M43.9961 92.1311L42.11 93.7681C41.1491 94.5985 39.69 94.4917 38.8596 93.5309L38.5749 93.2106C37.7445 92.2497 37.8513 90.7906 38.8122 89.9602L40.6983 88.3232C41.6592 87.4928 43.1183 87.5996 43.9486 88.5604L44.2334 88.8807C45.0637 89.8416 44.957 91.2888 43.9961 92.1311Z" stroke="#231F20" stroke-width="2" stroke-miterlimit="10" stroke-linecap="round" stroke-linejoin="round"/>
<path d="M51.8008 84.8947L57.9219 89.1297C58.5031 89.6042 59.2505 89.7821 59.9385 89.6516C60.5079 89.5449 61.0536 89.2483 61.4569 88.7501C62.3347 87.6706 62.3466 85.7726 61.2671 84.8947L55.8103 81.4546" stroke="#231F20" stroke-width="2" stroke-miterlimit="10" stroke-linecap="round" stroke-linejoin="round"/>
<path d="M48.6953 88.2283L53.559 92.0006C54.0809 92.392 54.7334 92.5344 55.3384 92.4276C55.8484 92.3327 56.3229 92.0717 56.6788 91.6565C57.4618 90.7431 57.5329 88.7977 56.5958 88.074L51.8152 84.9067" stroke="#231F20" stroke-width="2" stroke-miterlimit="10" stroke-linecap="round" stroke-linejoin="round"/>
<path d="M48.6911 88.228L50.6721 89.7702C52.7837 91.3953 51.3009 93.4001 51.3009 93.4001C51.3009 93.4001 49.8536 95.5828 46.9117 93.6967L44.207 91.8936" stroke="#231F20" stroke-width="2" stroke-miterlimit="10" stroke-linecap="round" stroke-linejoin="round"/>
<path d="M26.677 64.0999L27.8514 62.451C28.3615 61.7393 28.148 60.7547 27.4125 60.2921L24.2333 58.3585C23.5453 57.9433 22.6437 58.1449 22.193 58.8092L13.2486 72.3444C12.7859 73.0443 12.9876 73.9933 13.6994 74.4441L16.7599 76.3777C17.4717 76.8285 18.4088 76.6031 18.8477 75.8913L19.8323 74.278" stroke="#231F20" stroke-width="2" stroke-miterlimit="10" stroke-linecap="round" stroke-linejoin="round"/>
<path d="M69.3349 63.9574L68.374 62.2373C67.8639 61.5255 67.852 60.6003 68.5994 60.1495L71.7785 58.2159C72.4666 57.8007 73.3681 58.0023 73.8189 58.6667L82.7514 73.4237C83.2141 74.1236 83.0124 75.0726 82.3006 75.5234L79.2401 77.457C78.5283 77.9078 77.5912 77.6824 77.1523 76.9706L75.8711 75.12" stroke="#231F20" stroke-width="2" stroke-miterlimit="10" stroke-linecap="round" stroke-linejoin="round"/>
</svg>
