<svg width="165" height="91" viewBox="0 0 165 91" fill="none" xmlns="http://www.w3.org/2000/svg">
<path fill-rule="evenodd" clip-rule="evenodd" d="M98 27V0H71H55V27H71V90H98V27Z" fill="#333333"/>
<path d="M1 65H46V75C46 75.5523 45.5523 76 45 76H2C1.44772 76 1 75.5523 1 75V65Z" fill="white" stroke="black" stroke-width="2"/>
<rect x="13" y="60" width="7" height="5" fill="white" stroke="black" stroke-width="2"/>
<rect x="20" y="60" width="7" height="5" fill="white" stroke="black" stroke-width="2"/>
<rect x="27" y="60" width="7" height="5" fill="white" stroke="black" stroke-width="2"/>
<path d="M42.9291 76C42.4439 79.3923 39.5265 82 36 82H12C8.47353 82 5.55612 79.3923 5.07089 76H42.9291Z" fill="white" stroke="black" stroke-width="2"/>
<path d="M1 65H13V58C13 57.4477 12.5523 57 12 57H2C1.44772 57 1 57.4477 1 58V65Z" fill="white" stroke="black" stroke-width="2"/>
<path d="M34 65H46V58C46 57.4477 45.5523 57 45 57H35C34.4477 57 34 57.4477 34 58V65Z" fill="white" stroke="black" stroke-width="2"/>
<path d="M30 82H38V88C38 88.5523 37.5523 89 37 89H31C30.4477 89 30 88.5523 30 88V82Z" fill="white" stroke="black" stroke-width="2"/>
<path d="M12 82H20V88C20 88.5523 19.5523 89 19 89H13C12.4477 89 12 88.5523 12 88V82Z" fill="white" stroke="black" stroke-width="2"/>
<rect x="5" y="69" width="3" height="2" fill="black"/>
<rect x="11" y="69" width="3" height="2" fill="black"/>
<path d="M21 38.0031C20.7368 37.9054 18 40.1525 18 42.4973C18 44.8421 20.7368 45.526 20.7368 47.9685C20.7368 49.9225 19.1228 52.137 18.3158 53" stroke="#191919" stroke-width="2" stroke-linecap="round"/>
<path d="M27 38.0031C26.8246 37.9054 25 40.1525 25 42.4973C25 44.8421 26.8246 45.526 26.8246 47.9685C26.8246 49.9225 25.7485 52.137 25.2105 53" stroke="#191919" stroke-width="2" stroke-linecap="round"/>
<path d="M34 38.0031C33.7368 37.9054 31 40.1525 31 42.4973C31 44.8421 33.7368 45.526 33.7368 47.9685C33.7368 49.9225 32.1228 52.137 31.3158 53" stroke="#191919" stroke-width="2" stroke-linecap="round"/>
<rect x="124" y="56" width="34" height="26" rx="1" fill="white" stroke="black" stroke-width="2"/>
<rect x="124" y="56" width="34" height="10" rx="1" fill="white" stroke="black" stroke-width="2"/>
<path d="M163.826 57.0815C163.874 56.499 163.414 56 162.83 56H158V62.3665L163.133 59.7455C163.442 59.5879 163.647 59.2817 163.675 58.9363L163.826 57.0815Z" fill="white" stroke="black" stroke-width="2"/>
<path d="M118.174 57.0815C118.126 56.499 118.586 56 119.17 56H124V62.3665L118.867 59.7455C118.558 59.5879 118.353 59.2817 118.325 58.9363L118.174 57.0815Z" fill="white" stroke="black" stroke-width="2"/>
<rect x="124" y="44" width="34" height="8" rx="1" fill="white" stroke="black" stroke-width="2"/>
<path d="M134 41C134 40.4477 134.448 40 135 40H147C147.552 40 148 40.4477 148 41V44H134V41Z" fill="white" stroke="black" stroke-width="2"/>
<circle cx="132" cy="61" r="2" fill="white" stroke="black" stroke-width="2"/>
<circle cx="128" cy="86" r="4" fill="white" stroke="black" stroke-width="2"/>
<circle cx="154" cy="86" r="4" fill="white" stroke="black" stroke-width="2"/>
<circle cx="141" cy="61" r="2" fill="white" stroke="black" stroke-width="2"/>
<circle cx="150" cy="61" r="2" fill="white" stroke="black" stroke-width="2"/>
<path d="M86.9886 51.0014C86.896 50.9761 86.1306 52.0029 86.2729 52.9299C86.4151 53.857 87.3583 53.989 87.5065 54.9547C87.6251 55.7273 87.2277 56.6845 87.0141 57.0665" stroke="white" stroke-linecap="round"/>
<path d="M89.9886 51.0014C89.896 50.9761 89.1306 52.0029 89.2729 52.9299C89.4151 53.857 90.3583 53.989 90.5065 54.9547C90.6251 55.7273 90.2277 56.6845 90.0141 57.0665" stroke="white" stroke-linecap="round"/>
<path d="M92.9886 51.0014C92.896 50.9761 92.1306 52.0029 92.2729 52.9299C92.4151 53.857 93.3583 53.989 93.5065 54.9547C93.6251 55.7273 93.2277 56.6845 93.0141 57.0665" stroke="white" stroke-linecap="round"/>
<path d="M69 73.0002C69 79.0754 73.9249 84.0002 80 84.0002H88C94.0751 84.0002 99 79.0754 99 73.0002V64.0002C99 63.448 98.5523 63.0002 98 63.0002H70C69.4477 63.0002 69 63.448 69 64.0002V73.0002Z" fill="white" stroke="black" stroke-width="2"/>
<path d="M84 60.0002C84 59.448 84.4477 59.0002 85 59.0002H94C94.5523 59.0002 95 59.448 95 60.0002V63.0002H84V60.0002Z" fill="white" stroke="black" stroke-width="2"/>
<path d="M69.1957 61.3644C65.2925 57.1991 65.5049 50.6584 69.6702 46.7552L76.4771 40.3765C80.6424 36.4733 87.1831 36.6857 91.0863 40.851C91.4222 41.2094 91.4039 41.7721 91.0455 42.108L70.4526 61.4052C70.0943 61.741 69.5315 61.7228 69.1957 61.3644Z" fill="white" stroke="black" stroke-width="2"/>
<path d="M68.0972 44.1591C67.7196 43.7561 67.7402 43.1233 68.1432 42.7457L71.7916 39.3268C72.1946 38.9491 72.8274 38.9697 73.2051 39.3727L75.2235 41.5266L70.1156 46.3131L68.0972 44.1591Z" fill="white" stroke="black" stroke-width="2"/>
<mask id="path-34-inside-1_1_3179" fill="white">
<path d="M62 67.0002C62 66.448 62.4477 66.0002 63 66.0002H68C68.5523 66.0002 69 66.448 69 67.0002V70.0002C69 70.5525 68.5523 71.0002 68 71.0002H63C62.4477 71.0002 62 70.5525 62 70.0002V67.0002Z"/>
</mask>
<path d="M62 67.0002C62 66.448 62.4477 66.0002 63 66.0002H68C68.5523 66.0002 69 66.448 69 67.0002V70.0002C69 70.5525 68.5523 71.0002 68 71.0002H63C62.4477 71.0002 62 70.5525 62 70.0002V67.0002Z" fill="white" stroke="black" stroke-width="4" mask="url(#path-34-inside-1_1_3179)"/>
<mask id="path-35-inside-2_1_3179" fill="white">
<path d="M106 67.0002C106 66.448 105.552 66.0002 105 66.0002H100C99.4477 66.0002 99 66.448 99 67.0002V70.0002C99 70.5525 99.4477 71.0002 100 71.0002H105C105.552 71.0002 106 70.5525 106 70.0002V67.0002Z"/>
</mask>
<path d="M106 67.0002C106 66.448 105.552 66.0002 105 66.0002H100C99.4477 66.0002 99 66.448 99 67.0002V70.0002C99 70.5525 99.4477 71.0002 100 71.0002H105C105.552 71.0002 106 70.5525 106 70.0002V67.0002Z" fill="white" stroke="black" stroke-width="4" mask="url(#path-35-inside-2_1_3179)"/>
<mask id="path-36-inside-3_1_3179" fill="white">
<path d="M53 67.0002C53 66.448 53.4477 66.0002 54 66.0002H60C60.5523 66.0002 61 66.448 61 67.0002V70.0002C61 70.5525 60.5523 71.0002 60 71.0002H54C53.4477 71.0002 53 70.5525 53 70.0002V67.0002Z"/>
</mask>
<path d="M53 67.0002C53 66.448 53.4477 66.0002 54 66.0002H60C60.5523 66.0002 61 66.448 61 67.0002V70.0002C61 70.5525 60.5523 71.0002 60 71.0002H54C53.4477 71.0002 53 70.5525 53 70.0002V67.0002Z" fill="white" stroke="black" stroke-width="4" mask="url(#path-36-inside-3_1_3179)"/>
<mask id="path-37-inside-4_1_3179" fill="white">
<path d="M115 67.0002C115 66.448 114.552 66.0002 114 66.0002H108C107.448 66.0002 107 66.448 107 67.0002V70.0002C107 70.5525 107.448 71.0002 108 71.0002H114C114.552 71.0002 115 70.5525 115 70.0002V67.0002Z"/>
</mask>
<path d="M115 67.0002C115 66.448 114.552 66.0002 114 66.0002H108C107.448 66.0002 107 66.448 107 67.0002V70.0002C107 70.5525 107.448 71.0002 108 71.0002H114C114.552 71.0002 115 70.5525 115 70.0002V67.0002Z" fill="white" stroke="black" stroke-width="4" mask="url(#path-37-inside-4_1_3179)"/>
<circle cx="84" cy="75.0002" r="4" fill="white" stroke="black" stroke-width="2"/>
<path d="M63 87.7615V82.7205C63 82.4112 63.0717 82.1061 63.2096 81.8293L68.6 71.0002L69 78.0002L66.0959 82.3677C65.902 82.6593 65.7881 82.9967 65.7655 83.3461L65.4749 87.8414C65.4328 88.4932 64.8919 89.0002 64.2387 89.0002C63.5546 89.0002 63 88.4456 63 87.7615Z" stroke="black" stroke-width="2"/>
<path d="M105 87.7615V82.7205C105 82.4112 104.928 82.1061 104.79 81.8293L99.4 71.0002L99 78.0002L101.904 82.3677C102.098 82.6593 102.212 82.9967 102.234 83.3461L102.525 87.8414C102.567 88.4932 103.108 89.0002 103.761 89.0002C104.445 89.0002 105 88.4456 105 87.7615Z" stroke="black" stroke-width="2"/>
<path d="M62 67.0002L63.7143 63.0002H68V67.0002" stroke="black" stroke-width="2"/>
<path d="M106 67.0002L104 63.0002H99V67.0002" stroke="black" stroke-width="2"/>
<path d="M54 67.0002L57.5556 63.0002H62L60.2222 67.0002" stroke="black" stroke-width="2"/>
<path d="M114 67.0002L110.444 63.0002H106L107.778 67.0002" stroke="black" stroke-width="2"/>
</svg>
