<svg width="108" height="133" viewBox="0 0 108 133" fill="none" xmlns="http://www.w3.org/2000/svg">
<path d="M38.836 106.596C60.914 106.596 75.544 95.823 75.544 80.262C75.544 67.494 64.106 60.179 54.663 59.248C65.17 57.519 74.081 49.672 74.081 39.298C74.081 24.668 61.446 14.959 38.836 14.959C22.477 14.959 10.773 20.944 3.325 29.323L14.364 43.687C20.615 38.101 28.329 35.175 36.442 35.175C44.954 35.175 51.338 37.702 51.338 43.288C51.338 47.943 46.151 50.204 36.974 50.204C33.649 50.204 26.733 50.204 25.004 50.071V70.42C26.334 70.287 33.117 70.287 36.974 70.287C49.077 70.287 52.801 72.681 52.801 77.735C52.801 82.656 47.747 86.38 37.905 86.38C30.191 86.38 20.083 83.321 13.699 77.07L2.128 92.631C9.044 100.611 21.812 106.596 38.836 106.596Z" fill="#333333"/>
<path d="M73.0841 103.11C74.195 104.032 75.805 104.032 76.9159 103.11L80.1168 100.454C81.1758 99.5749 82.5502 99.1713 83.9162 99.3382L88.0451 99.8425C89.4782 100.018 90.8326 99.1471 91.2687 97.7708L92.5252 93.8055C92.9409 92.4936 93.879 91.411 95.1184 90.8128L98.8645 89.0048C100.165 88.3773 100.834 86.9128 100.456 85.5192L99.3695 81.5041C99.01 80.1757 99.2138 78.7578 99.9331 77.5845L102.107 74.0382C102.862 72.8074 102.632 71.2137 101.562 70.2454L98.4767 67.4552C97.456 66.5321 96.861 65.2291 96.8317 63.8532L96.7433 59.6945C96.7126 58.2511 95.6582 57.0343 94.2339 56.7985L90.1302 56.1192C88.7724 55.8944 87.5674 55.12 86.7989 53.9783L84.4762 50.5276C83.67 49.33 82.1252 48.8764 80.7995 49.4481L76.9799 51.0952C75.7162 51.6402 74.2838 51.6402 73.0201 51.0952L69.2005 49.4481C67.8748 48.8764 66.33 49.33 65.5238 50.5276L63.2011 53.9783C62.4326 55.12 61.2276 55.8944 59.8698 56.1192L55.7661 56.7985C54.3418 57.0343 53.2874 58.2511 53.2567 59.6945L53.1683 63.8532C53.139 65.2291 52.544 66.5321 51.5233 67.4552L48.4383 70.2454C47.3676 71.2137 47.1384 72.8074 47.893 74.0382L50.0669 77.5846C50.7862 78.7578 50.99 80.1757 50.6305 81.5041L49.5437 85.5192C49.1665 86.9128 49.8353 88.3773 51.1355 89.0048L54.8816 90.8128C56.121 91.411 57.0591 92.4936 57.4748 93.8055L58.7313 97.7708C59.1673 99.1471 60.5218 100.018 61.9549 99.8425L66.0838 99.3382C67.4498 99.1713 68.8243 99.5749 69.8832 100.454L73.0841 103.11Z" fill="white" stroke="#191919" stroke-width="2"/>
<circle cx="19" cy="19" r="18" transform="matrix(1 0 0 -1 56 95)" fill="white" stroke="#191919" stroke-width="2"/>
<path d="M106.65 90.6364L105.879 90L101.154 95.7272C100.544 96.4662 100.544 97.5338 101.154 98.2728L105.879 104L44.1214 104L48.8464 98.2728C49.456 97.5338 49.456 96.4662 48.8464 95.7272L44.1214 90L105.879 90L106.65 90.6364Z" fill="white" stroke="#191919" stroke-width="2"/>
<path d="M58.3023 100C59.5723 100 60.2423 99.2 60.2423 98.2C60.2423 97.36 59.6723 96.67 58.9623 96.56C59.5923 96.43 60.1123 95.87 60.1123 95.03C60.1123 94.14 59.4623 93.33 58.1923 93.33H54.6823V100H58.3023ZM57.8823 96H56.1023V94.55H57.8823C58.3623 94.55 58.6623 94.86 58.6623 95.28C58.6623 95.7 58.3623 96 57.8823 96ZM57.9323 98.77H56.1023V97.22H57.9323C58.4923 97.22 58.7923 97.58 58.7923 98C58.7923 98.48 58.4723 98.77 57.9323 98.77ZM68.3631 100L66.8631 97.46C67.5831 97.29 68.3231 96.66 68.3231 95.48C68.3231 94.24 67.4731 93.33 66.0831 93.33H62.9631V100H64.3831V97.63H65.4231L66.7331 100H68.3631ZM65.8731 96.38H64.3831V94.58H65.8731C66.4431 94.58 66.8731 94.92 66.8731 95.48C66.8731 96.04 66.4431 96.38 65.8731 96.38ZM77.2589 100L74.6889 93.33H72.9089L70.3289 100H71.9489L72.3689 98.87H75.2289L75.6389 100H77.2589ZM74.8389 97.62H72.7589L73.7989 94.75L74.8389 97.62ZM85.4948 100V93.33H84.0748V97.52L80.9848 93.33H79.5248V100H80.9448V95.65L84.1248 100H85.4948ZM91.09 100C93.18 100 94.63 98.68 94.63 96.67C94.63 94.66 93.18 93.33 91.09 93.33H88.46V100H91.09ZM91.09 98.75H89.88V94.58H91.09C92.46 94.58 93.18 95.49 93.18 96.67C93.18 97.8 92.41 98.75 91.09 98.75Z" fill="#191919"/>
<circle cx="3.52273" cy="3.52273" r="2.52273" transform="matrix(1 0 0 -1 62 77.1362)" fill="white" stroke="#191919" stroke-width="2"/>
<circle cx="3.52273" cy="3.52273" r="2.52273" transform="matrix(1 0 0 -1 71.3945 75.0454)" fill="white" stroke="#191919" stroke-width="2"/>
<circle cx="3.52273" cy="3.52273" r="2.52273" transform="matrix(1 0 0 -1 80.7891 77.1362)" fill="white" stroke="#191919" stroke-width="2"/>
<path d="M66.5388 76.714L68.222 81.4271C68.3642 81.8251 68.7412 82.0908 69.1638 82.0908H81.2085C81.655 82.0908 82.0474 81.7948 82.1701 81.3655L83.3972 77.0706C83.6696 76.1172 82.5377 75.3913 81.7849 76.0366L80.7766 76.9008C80.4365 77.1924 79.9439 77.2221 79.5712 76.9736L75.5477 74.2913C75.1749 74.0428 74.6824 74.0725 74.3422 74.3641L71.3827 76.9008C71.0425 77.1924 70.55 77.2221 70.1772 76.9736L68.0352 75.5456C67.234 75.0115 66.2149 75.8072 66.5388 76.714Z" stroke="#191919" stroke-width="2"/>
</svg>
