<svg width="91" height="133" viewBox="0 0 91 133" fill="none" xmlns="http://www.w3.org/2000/svg">
<path d="M68.362 105V88.774H79.135V68.691H68.362V16.289H36.575L2.926 70.952V88.774H45.353V105H68.362ZM45.353 68.691H25.137L45.353 36.239V68.691Z" fill="#333333"/>
<path d="M34 91.2198V92.5465C34 93.0803 34.4192 93.52 34.9524 93.5454L43.4524 93.9501C44.0227 93.9773 44.5 93.5222 44.5 92.9512V77.905C44.5 77.3912 44.8893 76.9611 45.4005 76.91L48.4005 76.61C48.9892 76.5511 49.5 77.0134 49.5 77.605V88.1667C49.5 88.383 49.5702 88.5936 49.7 88.7667L50.6219 89.9958C50.8529 90.3039 51.2404 90.4519 51.618 90.3764L52.3039 90.2392C52.9227 90.1155 53.5 90.5888 53.5 91.2198V93C53.5 93.5523 53.9477 94 54.5 94H63.5C64.0523 94 64.5 93.5523 64.5 93V91.5C64.5 90.9477 64.9477 90.5 65.5 90.5H67.1972C67.3946 90.5 67.5877 90.4416 67.7519 90.3321L68.5547 89.7969C68.8329 89.6114 69 89.2992 69 88.9648V78C69 77.4477 69.4477 77 70 77H72.0298C72.5703 77 73.013 77.4295 73.0294 77.9697L73.4706 92.5303C73.487 93.0705 73.9297 93.5 74.4702 93.5H83.5C84.0523 93.5 84.5 93.0523 84.5 92.5V91.5C84.5 90.9477 84.9477 90.5 85.5 90.5H85.901C85.9668 90.5 86.0325 90.4935 86.0971 90.4806L87.6961 90.1608C88.1635 90.0673 88.5 89.6569 88.5 89.1802V80.5L88.0324 74.4211C88.0117 74.1519 87.883 73.9025 87.6755 73.7296L85.2781 71.7318C85.0984 71.582 84.8719 71.5 84.638 71.5H57.5H41.5H32.618C32.2393 71.5 31.893 71.714 31.7236 72.0528L29.6056 76.2889C29.5361 76.4277 29.5 76.5808 29.5 76.7361V89.2192C29.5 89.6781 29.8123 90.0781 30.2575 90.1894L31.2818 90.4455C31.4255 90.4814 31.5753 90.4849 31.7205 90.4559L32.8039 90.2392C33.4227 90.1155 34 90.5888 34 91.2198Z" fill="white"/>
<circle cx="39" cy="65" r="6" fill="white"/>
<circle cx="59" cy="65" r="6" fill="white"/>
<circle cx="78" cy="65" r="6" fill="white"/>
<path d="M64.8094 78.36V88.89C64.8094 90.02 65.7294 90.94 66.8594 90.94C67.9894 90.94 68.9094 90.02 68.9094 88.89V76.67C68.9094 75.64 68.5894 74.63 68.0094 73.79L67.8994 73.63C66.9594 72.27 65.4094 71.47 63.7594 71.47H54.2594C52.6094 71.47 51.0594 72.28 50.1194 73.63L50.0094 73.79C49.4194 74.64 49.1094 75.64 49.1094 76.67V88.89C49.1094 90.02 50.0294 90.94 51.1594 90.94C52.2894 90.94 53.2094 90.02 53.2094 88.89V78.36" stroke="#231F20" stroke-width="2" stroke-miterlimit="10" stroke-linecap="round" stroke-linejoin="round"/>
<path d="M64.8075 85.5298V94.2898H53.1875V85.5298" stroke="#231F20" stroke-width="2" stroke-miterlimit="10" stroke-linecap="round" stroke-linejoin="round"/>
<path d="M59.0009 71.4599C62.4748 71.4599 65.2909 68.6438 65.2909 65.1699C65.2909 61.696 62.4748 58.8799 59.0009 58.8799C55.5271 58.8799 52.7109 61.696 52.7109 65.1699C52.7109 68.6438 55.5271 71.4599 59.0009 71.4599Z" stroke="#231F20" stroke-width="2" stroke-miterlimit="10" stroke-linecap="round" stroke-linejoin="round"/>
<path d="M53.1875 103.12V94.29H58.9975V103.12" stroke="#231F20" stroke-width="2" stroke-miterlimit="10" stroke-linecap="round" stroke-linejoin="round"/>
<path d="M59 103.12V94.29H64.81V103.12" stroke="#231F20" stroke-width="2" stroke-miterlimit="10" stroke-linecap="round" stroke-linejoin="round"/>
<path d="M84.6308 78.3599V88.8899C84.6308 90.0199 85.5508 90.9399 86.6808 90.9399C87.8108 90.9399 88.7308 90.0199 88.7308 88.8899V76.6699C88.7308 75.6399 88.4108 74.6299 87.8308 73.7899L87.7208 73.6299C86.7808 72.2699 85.2308 71.4699 83.5808 71.4699H74.0808C72.4308 71.4699 65.8508 71.1599 65.3008 71.7099" stroke="#231F20" stroke-width="2" stroke-miterlimit="10" stroke-linecap="round" stroke-linejoin="round"/>
<path d="M68.9102 77.02H73.0102V94.29H84.6302V85.53" stroke="#231F20" stroke-width="2" stroke-miterlimit="10" stroke-linecap="round" stroke-linejoin="round"/>
<path d="M85.1113 65.1699C85.1113 68.6399 82.2913 71.4599 78.8213 71.4599C75.3513 71.4599 72.5312 68.6399 72.5312 65.1699C72.5312 61.6999 75.3513 58.8799 78.8213 58.8799C82.2913 58.8799 85.1113 61.6999 85.1113 65.1699Z" stroke="#231F20" stroke-width="2" stroke-miterlimit="10" stroke-linecap="round" stroke-linejoin="round"/>
<path d="M73.0117 103.12V94.29H78.8217V103.12" stroke="#231F20" stroke-width="2" stroke-miterlimit="10" stroke-linecap="round" stroke-linejoin="round"/>
<path d="M78.8203 103.12V94.29H84.6303V103.12" stroke="#231F20" stroke-width="2" stroke-miterlimit="10" stroke-linecap="round" stroke-linejoin="round"/>
<path d="M33.3695 78.3599V88.8899C33.3695 90.0199 32.4495 90.9399 31.3195 90.9399C30.1895 90.9399 29.2695 90.0199 29.2695 88.8899V76.6699C29.2695 75.6399 29.5895 74.6299 30.1695 73.7899L30.2795 73.6299C31.2195 72.2699 32.7695 71.4699 34.4195 71.4699H43.9195C45.5695 71.4699 52.1495 71.1599 52.6995 71.7099" stroke="#231F20" stroke-width="2" stroke-miterlimit="10" stroke-linecap="round" stroke-linejoin="round"/>
<path d="M49.0911 77.02H44.9911V94.29H33.3711V85.53" stroke="#231F20" stroke-width="2" stroke-miterlimit="10" stroke-linecap="round" stroke-linejoin="round"/>
<path d="M32.8906 65.1699C32.8906 68.6399 35.7106 71.4599 39.1806 71.4599C42.6506 71.4599 45.4706 68.6399 45.4706 65.1699C45.4706 61.6999 42.6506 58.8799 39.1806 58.8799C35.7106 58.8799 32.8906 61.6999 32.8906 65.1699Z" stroke="#231F20" stroke-width="2" stroke-miterlimit="10" stroke-linecap="round" stroke-linejoin="round"/>
<path d="M44.9897 103.12V94.2898H39.1797V103.12" stroke="#231F20" stroke-width="2" stroke-miterlimit="10" stroke-linecap="round" stroke-linejoin="round"/>
<path d="M39.1811 103.12V94.29H33.3711V103.12" stroke="#231F20" stroke-width="2" stroke-miterlimit="10" stroke-linecap="round" stroke-linejoin="round"/>
</svg>
