<svg width="102" height="133" viewBox="0 0 102 133" fill="none" xmlns="http://www.w3.org/2000/svg">
<path d="M75.411 105V85.05H42.959C65.037 69.622 74.746 58.051 74.746 44.485C74.746 26.663 59.717 14.959 38.836 14.959C26.467 14.959 12.369 19.348 2.926 29.722L15.561 44.884C21.945 38.899 29.393 35.175 39.235 35.175C45.752 35.175 51.471 38.367 51.471 44.485C51.471 53.263 44.289 59.381 5.852 87.178V105H75.411Z" fill="#333333"/>
<path d="M67.0841 103.11C68.195 104.032 69.805 104.032 70.9159 103.11L74.1168 100.454C75.1758 99.5749 76.5502 99.1713 77.9162 99.3382L82.0451 99.8425C83.4782 100.018 84.8326 99.1471 85.2687 97.7708L86.5252 93.8055C86.9409 92.4936 87.879 91.411 89.1184 90.8128L92.8645 89.0048C94.1647 88.3773 94.8335 86.9128 94.4563 85.5192L93.3695 81.5041C93.01 80.1757 93.2138 78.7578 93.9331 77.5845L96.107 74.0382C96.8616 72.8074 96.6324 71.2137 95.5617 70.2454L92.4767 67.4552C91.456 66.5321 90.861 65.2291 90.8317 63.8532L90.7433 59.6945C90.7126 58.2511 89.6582 57.0343 88.2339 56.7985L84.1302 56.1192C82.7724 55.8944 81.5674 55.12 80.7989 53.9783L78.4762 50.5276C77.67 49.33 76.1252 48.8764 74.7995 49.4481L70.9799 51.0952C69.7162 51.6402 68.2838 51.6402 67.0201 51.0952L63.2005 49.4481C61.8748 48.8764 60.33 49.33 59.5238 50.5276L57.2011 53.9783C56.4326 55.12 55.2276 55.8944 53.8698 56.1192L49.7661 56.7985C48.3418 57.0343 47.2874 58.2511 47.2567 59.6945L47.1683 63.8532C47.139 65.2291 46.544 66.5321 45.5233 67.4552L42.4383 70.2454C41.3676 71.2137 41.1384 72.8074 41.893 74.0382L44.0669 77.5846C44.7862 78.7578 44.99 80.1757 44.6305 81.5041L43.5437 85.5192C43.1665 86.9128 43.8353 88.3773 45.1355 89.0048L48.8816 90.8128C50.121 91.411 51.0591 92.4936 51.4748 93.8055L52.7313 97.7708C53.1673 99.1471 54.5218 100.018 55.9549 99.8425L60.0838 99.3382C61.4498 99.1713 62.8243 99.5749 63.8832 100.454L67.0841 103.11Z" fill="white" stroke="#191919" stroke-width="2"/>
<circle cx="21" cy="21" r="20" transform="matrix(1 0 0 -1 48 97)" fill="white" stroke="#191919" stroke-width="2"/>
<path d="M100.65 90.6364L99.8786 90L95.1536 95.7272C94.544 96.4662 94.544 97.5338 95.1536 98.2728L99.8786 104L38.1214 104L42.8464 98.2728C43.456 97.5338 43.456 96.4662 42.8464 95.7272L38.1214 90L99.8786 90L100.65 90.6364Z" fill="white" stroke="#191919" stroke-width="2"/>
<path d="M56.8077 70.6364C56.8077 67.9091 59.2275 67 61.1622 67C63.097 67 65.0329 68.3636 65.0329 70.6364C65.0329 74.3521 60.829 77.764 57.7965 80.3756C57.1204 80.9578 57.5311 82 58.4233 82H66" stroke="#191919" stroke-width="2" stroke-linecap="round"/>
<path d="M80 75C80 77.2984 79.3257 79.3382 78.2855 80.7785C77.2444 82.22 75.8931 83 74.5 83C73.1069 83 71.7556 82.22 70.7145 80.7785C69.6743 79.3382 69 77.2984 69 75C69 72.7016 69.6743 70.6618 70.7145 69.2215C71.7556 67.78 73.1069 67 74.5 67C75.8931 67 77.2444 67.78 78.2855 69.2215C79.3257 70.6618 80 72.7016 80 75Z" stroke="#191919" stroke-width="2"/>
<path d="M55.0808 101.168C56.8028 101.168 57.6428 100.062 57.9228 97.724L58.1468 95.792H60.2888V101H62.0668V94.238H56.5928L56.1588 97.514C55.9488 99.152 55.6268 99.712 55.0808 99.712V101.168ZM70.2299 101.168C71.2799 101.168 72.3439 100.846 73.0159 100.23L72.2319 99.082C71.7979 99.502 70.9999 99.754 70.4259 99.754C69.2779 99.754 68.5919 99.04 68.4799 98.186H73.5059V97.794C73.5059 95.582 72.1339 94.07 70.1179 94.07C68.0599 94.07 66.6179 95.652 66.6179 97.612C66.6179 99.782 68.1719 101.168 70.2299 101.168ZM71.7839 96.982H68.4519C68.5359 96.31 69.0119 95.484 70.1179 95.484C71.2939 95.484 71.7419 96.338 71.7839 96.982ZM81.0482 101V95.792H82.9382V94.238H77.3662V95.792H79.2562V101H81.0482Z" fill="#191919"/>
</svg>
