<svg width="72" height="39" viewBox="0 0 72 39" fill="none" xmlns="http://www.w3.org/2000/svg">
<path d="M54 23.8867L64.5 18.3867L66.5 20.3867L71 17.3867L62 1.38672H60L57 4.38672V7.38672L51.5 8.38672L48.5 7.38672H42.5L37 9.88672L31 5.88672L20.5 9.88672L17.5 8.38672H13.5L16 5.88672V3.38672L11.5 1.38672L1 16.3867L6 19.3867L8.5 17.3867L16 22.3867L13.5 25.3867L16 27.8867L17.5 30.3867L20.5 31.8867L21 33.8867L22.5 35.3867L25.5 34.8867L26.5 35.8867L29.5 37.3867L32.5 35.3867L37 37.3867L40 35.8867V33.8867L43.5 35.3867L45.5 33.8867V32.3867H48.5L50 30.3867V27.8867H52.5L54 26.3867V23.8867Z" fill="white"/>
<path d="M43.7995 24.4547L49.2563 27.8949C49.8375 28.3694 52.0914 29.0693 53.1946 27.6695C54.4877 26.2697 54.1555 24.7632 53.076 23.8853L41.6405 16.6492C37.2157 19.6267 33.4434 18.8319 31.0116 17.5863C29.4813 16.8034 29.4339 14.6325 30.9049 13.7547L40.5491 7.98949C45.9822 4.8815 51.6762 9.37742 51.6762 9.37742L57.3347 6.94559L63.8828 18.1083L53.0879 23.8735" stroke="#231F20" stroke-width="2" stroke-miterlimit="10" stroke-linecap="round" stroke-linejoin="round"/>
<path d="M36.8953 10.1947L34.4991 8.33225C32.7316 6.95619 30.6082 5.93601 27.8442 6.97992L19.8844 9.95742L14.6767 7.11041L7.83203 17.2885L15.7325 22.6148" stroke="#231F20" stroke-width="2" stroke-miterlimit="10" stroke-linecap="round" stroke-linejoin="round"/>
<path d="M20.5121 25.0957L17.9498 27.314C16.9889 28.1444 15.5298 28.0376 14.6994 27.0767L14.4147 26.7564C13.5844 25.7956 13.6911 24.3365 14.652 23.5061L17.2143 21.2878C18.1752 20.4574 19.6343 20.5642 20.4647 21.525L20.7494 21.8453C21.5797 22.8181 21.473 24.2653 20.5121 25.0957Z" stroke="#231F20" stroke-width="2" stroke-miterlimit="10" stroke-linecap="round" stroke-linejoin="round"/>
<path d="M24.8054 28.0372L21.2467 31.1215C20.2858 31.9519 18.8267 31.8451 17.9963 30.8842L17.7116 30.5639C16.8812 29.6031 16.988 28.1558 17.9489 27.3136L21.5076 24.2293C22.4685 23.3989 23.9157 23.5057 24.758 24.4666L25.0427 24.7869C25.8731 25.7477 25.7663 27.2068 24.8054 28.0372Z" stroke="#231F20" stroke-width="2" stroke-miterlimit="10" stroke-linecap="round" stroke-linejoin="round"/>
<path d="M28.462 31.5371L24.5592 34.9179C23.5983 35.7483 22.1392 35.6415 21.3088 34.6807L21.0241 34.3604C20.1937 33.3995 20.3005 31.9404 21.2614 31.11L25.1642 27.7292C26.125 26.8988 27.5841 27.0056 28.4145 27.9664L28.6992 28.2867C29.5177 29.2476 29.4228 30.7067 28.462 31.5371Z" stroke="#231F20" stroke-width="2" stroke-miterlimit="10" stroke-linecap="round" stroke-linejoin="round"/>
<path d="M31.9961 35.1308L30.11 36.7679C29.1491 37.5983 27.69 37.4915 26.8596 36.5306L26.5749 36.2103C25.7445 35.2495 25.8513 33.7904 26.8122 32.96L28.6983 31.3229C29.6592 30.4926 31.1183 30.5993 31.9486 31.5602L32.2334 31.8805C33.0637 32.8414 32.957 34.2886 31.9961 35.1308Z" stroke="#231F20" stroke-width="2" stroke-miterlimit="10" stroke-linecap="round" stroke-linejoin="round"/>
<path d="M39.8008 27.8952L45.9219 32.1302C46.5031 32.6047 47.2505 32.7826 47.9385 32.6521C48.5079 32.5454 49.0536 32.2488 49.4569 31.7506C50.3347 30.6711 50.3466 28.7731 49.2671 27.8952L43.8103 24.4551" stroke="#231F20" stroke-width="2" stroke-miterlimit="10" stroke-linecap="round" stroke-linejoin="round"/>
<path d="M36.6953 31.2278L41.559 35.0001C42.0809 35.3915 42.7334 35.5339 43.3384 35.4271C43.8484 35.3322 44.3229 35.0712 44.6788 34.6561C45.4618 33.7426 45.5329 31.7972 44.5958 31.0736L39.8152 27.9062" stroke="#231F20" stroke-width="2" stroke-miterlimit="10" stroke-linecap="round" stroke-linejoin="round"/>
<path d="M36.6911 31.2285L38.6721 32.7707C40.7837 34.3958 39.3009 36.4006 39.3009 36.4006C39.3009 36.4006 37.8536 38.5833 34.9117 36.6972L32.207 34.8941" stroke="#231F20" stroke-width="2" stroke-miterlimit="10" stroke-linecap="round" stroke-linejoin="round"/>
<path d="M14.677 7.09981L15.8514 5.45092C16.3615 4.73916 16.148 3.75457 15.4125 3.29193L12.2333 1.35833C11.5453 0.943141 10.6437 1.1448 10.193 1.80911L1.24859 15.3443C0.785948 16.0442 0.987611 16.9932 1.69937 17.444L4.75991 19.3776C5.47166 19.8284 6.40881 19.603 6.84772 18.8912L7.83232 17.2779" stroke="#231F20" stroke-width="2" stroke-miterlimit="10" stroke-linecap="round" stroke-linejoin="round"/>
<path d="M57.3349 6.95736L56.374 5.23729C55.8639 4.52553 55.852 3.60025 56.5994 3.14948L59.7785 1.21587C60.4666 0.800684 61.3681 1.00235 61.8189 1.66665L70.7514 16.4237C71.2141 17.1236 71.0124 18.0726 70.3006 18.5234L67.2401 20.457C66.5283 20.9078 65.5912 20.6824 65.1523 19.9706L63.8711 18.12" stroke="#231F20" stroke-width="2" stroke-miterlimit="10" stroke-linecap="round" stroke-linejoin="round"/>
</svg>
