<svg width="21" height="12" viewBox="0 0 21 12" fill="none" xmlns="http://www.w3.org/2000/svg">
<path d="M1.90494 1.9847V0.720703H3.53694V1.9847H1.90494ZM1.90494 7.6647V6.4007H3.53694V7.6647H1.90494ZM5.23294 4.6727V3.7127H6.68894V4.6727H5.23294ZM6.68894 3.7127H5.23294C5.23294 3.15804 5.07827 2.73137 4.76894 2.4327C4.47027 2.13404 4.05427 1.9847 3.52094 1.9847V0.720703C4.15027 0.720703 4.6996 0.848703 5.16894 1.1047C5.64894 1.35004 6.02227 1.70204 6.28894 2.1607C6.5556 2.6087 6.68894 3.12604 6.68894 3.7127ZM6.68894 4.6567C6.68894 5.25404 6.5556 5.7767 6.28894 6.2247C6.02227 6.6727 5.64894 7.0247 5.16894 7.2807C4.6996 7.5367 4.15027 7.6647 3.52094 7.6647V6.4007C4.05427 6.4007 4.47027 6.24604 4.76894 5.9367C5.07827 5.62737 5.23294 5.2007 5.23294 4.6567H6.68894ZM0.960938 12.0007V0.720703H2.41694V12.0007H0.960938Z" fill="white"/>
<path d="M12.4368 9.0087V3.7127H13.8928V9.0087H12.4368ZM9.15681 12.0007V10.7367H10.7408V12.0007H9.15681ZM9.15681 1.9847V0.720703H10.7408V1.9847H9.15681ZM9.15681 1.9847V0.720703H10.7408V1.9847H9.15681ZM13.8928 3.7127H12.4368C12.4368 3.15804 12.2875 2.73137 11.9888 2.4327C11.6901 2.13404 11.2741 1.9847 10.7408 1.9847V0.720703C11.3595 0.720703 11.9035 0.848703 12.3728 1.1047C12.8528 1.35004 13.2261 1.70204 13.4928 2.1607C13.7595 2.6087 13.8928 3.12604 13.8928 3.7127ZM13.8928 8.9927C13.8928 9.59004 13.7595 10.1127 13.4928 10.5607C13.2261 11.0087 12.8528 11.3607 12.3728 11.6167C11.9035 11.8727 11.3595 12.0007 10.7408 12.0007V10.7367C11.2741 10.7367 11.6901 10.5874 11.9888 10.2887C12.2875 9.97937 12.4368 9.54737 12.4368 8.9927H13.8928ZM8.13281 12.0007V0.720703H9.58881V12.0007H8.13281Z" fill="white"/>
<path d="M16.7826 7.0247V5.7287H20.0146V7.0247H16.7826ZM15.7266 0.720703H17.1826V12.0007H15.7266V0.720703ZM16.7026 0.720703H20.8146V1.9847H16.7026V0.720703Z" fill="white"/>
</svg>
