<svg width="202" height="56" viewBox="0 0 202 56" fill="none" xmlns="http://www.w3.org/2000/svg">
<g clip-path="url(#clip0_1_3063)">
<path d="M0 21.12V15.52C0 12.96 1.28254 10.56 3.52698 9.2L19.1579 0V5.44C19.1579 8 17.7952 10.32 15.631 11.68L0 21.12Z" fill="url(#paint0_linear_1_3063)"/>
<path d="M61.8008 20.88C61.5603 18.16 60.358 16.32 58.1135 15.28C56.831 14.72 55.5484 14.32 54.1857 14.24C51.6207 14 49.0556 14 46.4905 14.4C45.6087 14.48 43.7651 14.88 43.5246 14.96L43.7651 19.92C45.9294 19.36 48.1738 19.04 50.3381 18.96C51.3 18.96 52.2619 19.04 53.2238 19.28C54.0254 19.44 54.6667 20.16 54.827 21.04C54.9072 21.28 54.9072 21.6 54.9072 22C53.304 22.96 49.2961 25.28 48.8151 25.6C47.1318 26.64 45.7691 27.6 44.1659 28.72C42.0016 30.16 40.7992 32.64 40.9595 35.2C41.0397 37.68 41.9214 39.6 43.6849 40.8C45.208 41.76 46.9714 42.24 48.7349 42.24L58.1937 42.08L61.9611 42V34.96C62.2818 30.24 62.1214 25.52 61.8008 20.88ZM50.1778 37.44C48.9754 37.36 48.0937 36.4 47.9334 35.28C47.6127 32.96 47.9333 31.76 50.1778 30.24C52.1818 28.88 54.1857 27.76 55.2278 27.2V37.44C55.1476 37.44 50.9794 37.52 50.1778 37.44Z" fill="white"/>
<path d="M104.61 21.12C104.449 16.24 100.361 13.2 95.5517 14.32C93.4676 14.8 91.9446 15.92 89.9406 17.2C85.8525 11.92 80.6422 14.08 76.6343 17.04H76.0732L69.3398 14.48V42.08H76.5541V22.24L79.52 20.32C80.1613 19.84 80.9629 19.52 81.7644 19.52C82.9668 19.52 83.4478 20.8 83.4478 22.64V42.08H90.6621V21.84C91.3835 21.36 92.5057 20.56 93.6279 19.92C94.1089 19.6 94.7502 19.44 95.3113 19.44C96.7541 19.44 97.3954 20.88 97.3954 22.32C97.3954 22.88 97.3954 25.84 97.3954 25.84V42.08H104.61V21.12Z" fill="white"/>
<path d="M147.09 20.9601C146.93 16.0801 142.842 13.0401 138.032 14.1601C135.948 14.6401 134.425 15.7601 132.421 17.0401C128.333 11.7601 123.123 13.9201 119.115 16.8801H118.554L111.82 14.4001V42.0001H119.035V22.0801L122 20.1601C122.642 19.6801 123.443 19.3601 124.245 19.3601C125.447 19.3601 125.928 20.6401 125.928 22.4801V41.9201H133.143V21.6801C133.864 21.2001 134.986 20.4001 136.108 19.7601C136.589 19.4401 137.231 19.2801 137.792 19.2801C139.235 19.2801 139.876 20.7201 139.876 22.1601C139.876 22.7201 139.876 25.6801 139.876 25.6801V41.9201H147.09V20.9601Z" fill="white"/>
<path d="M164.805 37.5201C162.881 37.5201 161.839 36.5601 161.278 34.7201L161.198 34.4001L164.404 32.4001L169.695 28.9601L174.745 25.6801C174.745 25.6801 174.745 24.4001 174.745 23.9201C174.745 22.8801 174.745 21.9201 174.584 20.8801C174.264 17.6801 171.939 15.0401 168.813 14.4001C167.45 14.0801 166.007 13.8401 164.565 13.8401C163.362 13.8401 162.24 13.9201 161.118 14.1601C157.671 14.5601 154.785 17.1201 154.144 20.5601C153.663 22.4801 153.423 24.4001 153.423 26.3201C153.342 30.0001 153.342 33.0401 154.304 36.0801C154.946 38.5601 156.789 40.6401 159.194 41.5201C160.877 42.1601 162.641 42.4801 164.484 42.4001C167.21 42.3201 169.935 41.9201 172.5 41.1201C172.5 41.1201 172.34 36.4801 172.34 36.2401C169.855 37.0401 167.37 37.4401 164.805 37.5201ZM161.198 21.5201C161.599 19.6801 163.362 18.4801 165.206 18.8001C166.328 18.8801 167.29 19.6801 167.53 20.7201C167.771 22.0801 167.931 23.4401 167.931 24.8001C166.809 25.5201 164.404 27.0401 163.603 27.5201L162.4 28.3201L162 28.5601L160.557 29.5201V27.2001C160.557 25.2801 160.797 23.3601 161.198 21.5201Z" fill="white"/>
<path d="M200.798 16.64C196.71 12 191.5 13.84 187.412 16.8H186.851L180.117 14.32V41.84H187.331V22L190.297 20.08C190.939 19.6 191.74 19.28 192.542 19.28C193.985 19.28 194.626 20.4 194.626 22.4V41.84H201.92V21.68C201.92 18.96 201.52 17.68 200.798 16.64Z" fill="white"/>
<path d="M7.53492 22.32V19.76L3.92778 21.92C1.52302 23.36 0 25.92 0 28.8V42.08H7.53492V29.52L17.9556 23.36V16.08L7.53492 22.32Z" fill="white"/>
<path d="M31.6618 34.16C31.6618 33.76 31.6618 33.28 31.6618 32.88C31.6618 24 31.6618 15.12 31.6618 6.23997V4.71997L24.207 9.35997C24.207 9.67997 24.207 9.99997 24.207 10.32C24.207 18.48 24.207 26.64 24.207 34.72C24.207 38.4 25.8904 40.96 28.8562 41.84C31.3412 42.48 33.9062 42.48 36.311 41.84C36.5515 41.76 36.8721 41.68 37.1126 41.52V36.56C36.3912 36.72 35.6697 36.88 34.9483 36.96C32.7039 37.28 31.8221 36.48 31.6618 34.16Z" fill="white"/>
<path d="M202 52.8H0V56H202V52.8Z" fill="#EE2600"/>
</g>
<defs>
<linearGradient id="paint0_linear_1_3063" x1="-0.541714" y1="20.5631" x2="19.5781" y2="0.41148" gradientUnits="userSpaceOnUse">
<stop stop-color="#E32021"/>
<stop offset="1" stop-color="#EE8543"/>
</linearGradient>
<clipPath id="clip0_1_3063">
<rect width="202" height="56" fill="white"/>
</clipPath>
</defs>
</svg>
