<svg width="234" height="65" viewBox="0 0 234 65" fill="none" xmlns="http://www.w3.org/2000/svg">
<g clip-path="url(#clip0_1_3645)">
<path d="M0 24.5143V18.0143C0 15.0429 1.48571 12.2571 4.08571 10.6786L22.1929 0V6.31429C22.1929 9.28572 20.6143 11.9786 18.1071 13.5571L0 24.5143Z" fill="url(#paint0_linear_1_3645)"/>
<path d="M71.5929 24.2356C71.3144 21.0785 69.9215 18.9428 67.3215 17.7356C65.8358 17.0856 64.3501 16.6213 62.7715 16.5285C59.8001 16.2499 56.8286 16.2499 53.8572 16.7142C52.8358 16.8071 50.7001 17.2714 50.4215 17.3642L50.7001 23.1213C53.2072 22.4713 55.8072 22.0999 58.3144 22.0071C59.4286 22.0071 60.5429 22.0999 61.6572 22.3785C62.5858 22.5642 63.3286 23.3999 63.5144 24.4213C63.6072 24.6999 63.6072 25.0714 63.6072 25.5356C61.7501 26.6499 57.1072 29.3428 56.5501 29.7142C54.6001 30.9213 53.0215 32.0356 51.1644 33.3356C48.6572 35.0071 47.2644 37.8856 47.4501 40.8571C47.5429 43.7356 48.5644 45.9642 50.6072 47.3571C52.3715 48.4714 54.4144 49.0285 56.4572 49.0285L67.4144 48.8428L71.7787 48.7499V40.5785C72.1501 35.0999 71.9644 29.6214 71.5929 24.2356ZM58.1286 43.4571C56.7358 43.3642 55.7144 42.2499 55.5286 40.9499C55.1572 38.2571 55.5286 36.8642 58.1286 35.0999C60.4501 33.5213 62.7715 32.2213 63.9786 31.5713V43.4571C63.8858 43.4571 59.0572 43.5499 58.1286 43.4571Z" fill="black"/>
<path d="M121.177 24.5141C120.992 18.8498 116.256 15.3212 110.685 16.6212C108.27 17.1784 106.506 18.4784 104.185 19.9641C99.4489 13.8355 93.4132 16.3427 88.7703 19.7784H88.1203L80.3203 16.8069V48.8427H88.6775V25.8141L92.1132 23.5855C92.856 23.0284 93.7846 22.6569 94.7132 22.6569C96.106 22.6569 96.6632 24.1427 96.6632 26.2784V48.8427H105.02V25.3498C105.856 24.7927 107.156 23.8641 108.456 23.1212C109.013 22.7498 109.756 22.5641 110.406 22.5641C112.077 22.5641 112.82 24.2355 112.82 25.9069C112.82 26.5569 112.82 29.9927 112.82 29.9927V48.8427H121.177V24.5141Z" fill="black"/>
<path d="M170.392 24.3285C170.207 18.6642 165.471 15.1357 159.899 16.4357C157.485 16.9928 155.721 18.2928 153.399 19.7785C148.664 13.65 142.628 16.1571 137.985 19.5928H137.335L129.535 16.7142V48.75H137.892V25.6285L141.328 23.4C142.071 22.8428 142.999 22.4714 143.928 22.4714C145.321 22.4714 145.878 23.9571 145.878 26.0928V48.6571H154.235V25.1642C155.071 24.6071 156.371 23.6785 157.671 22.9357C158.228 22.5642 158.971 22.3785 159.621 22.3785C161.292 22.3785 162.035 24.05 162.035 25.7214C162.035 26.3714 162.035 29.8071 162.035 29.8071V48.6571H170.392V24.3285Z" fill="black"/>
<path d="M190.914 43.5502C188.686 43.5502 187.478 42.4359 186.828 40.3002L186.736 39.9287L190.45 37.6073L196.578 33.6145L202.428 29.8073C202.428 29.8073 202.428 28.3216 202.428 27.7645C202.428 26.5573 202.428 25.443 202.243 24.2359C201.871 20.5216 199.178 17.4573 195.557 16.7145C193.978 16.343 192.307 16.0645 190.635 16.0645C189.243 16.0645 187.943 16.1573 186.643 16.4359C182.65 16.9002 179.307 19.8716 178.564 23.8645C178.007 26.093 177.728 28.3216 177.728 30.5502C177.635 34.8216 177.635 38.3502 178.75 41.8787C179.493 44.7573 181.628 47.1716 184.414 48.193C186.364 48.9359 188.407 49.3073 190.543 49.2145C193.7 49.1216 196.857 48.6573 199.828 47.7287C199.828 47.7287 199.643 42.343 199.643 42.0645C196.764 42.993 193.886 43.4573 190.914 43.5502ZM186.736 24.9787C187.2 22.843 189.243 21.4502 191.378 21.8216C192.678 21.9145 193.793 22.843 194.071 24.0502C194.35 25.6287 194.535 27.2073 194.535 28.7859C193.235 29.6216 190.45 31.3859 189.521 31.943L188.128 32.8716L187.664 33.1502L185.993 34.2645V31.5716C185.993 29.343 186.271 27.1145 186.736 24.9787Z" fill="black"/>
<path d="M232.606 19.3142C227.87 13.9285 221.834 16.0642 217.098 19.5H216.448L208.648 16.6214V48.5643H217.006V25.5357L220.441 23.3071C221.184 22.75 222.113 22.3785 223.041 22.3785C224.713 22.3785 225.456 23.6785 225.456 26V48.5643H233.906V25.1643C233.906 22.0071 233.441 20.5214 232.606 19.3142Z" fill="black"/>
<path d="M8.72857 25.9069V22.9355L4.55 25.4426C1.76429 27.1141 0 30.0855 0 33.4283V48.8426H8.72857V34.2641L20.8 27.1141V18.6641L8.72857 25.9069Z" fill="black"/>
<path d="M36.6787 39.6499C36.6787 39.1857 36.6787 38.6285 36.6787 38.1642C36.6787 27.8571 36.6787 17.5499 36.6787 7.2428V5.47852L28.043 10.8642C28.043 11.2357 28.043 11.6071 28.043 11.9785C28.043 21.4499 28.043 30.9214 28.043 40.2999C28.043 44.5714 29.993 47.5428 33.4287 48.5642C36.3073 49.3071 39.2787 49.3071 42.0644 48.5642C42.343 48.4714 42.7144 48.3785 42.993 48.1928V42.4357C42.1573 42.6214 41.3215 42.8071 40.4858 42.8999C37.8858 43.2714 36.8644 42.3428 36.6787 39.6499Z" fill="black"/>
<path d="M234 61.2856H0V64.9999H234V61.2856Z" fill="#EE2600"/>
</g>
<defs>
<linearGradient id="paint0_linear_1_3645" x1="-0.62753" y1="23.8679" x2="22.7259" y2="0.523901" gradientUnits="userSpaceOnUse">
<stop stop-color="#E32021"/>
<stop offset="1" stop-color="#EE8543"/>
</linearGradient>
<clipPath id="clip0_1_3645">
<rect width="234" height="65" fill="white"/>
</clipPath>
</defs>
</svg>
