<svg width="0" height="0" class="hidden">
  <symbol xmlns="http://www.w3.org/2000/svg" viewBox="0 0 8 12" id="ic_arr_hor">
    <path fill-rule="evenodd" clip-rule="evenodd" d="M7.07009 5.65745L7.07024 5.6576L1.41339 11.3145L-0.00082499 9.90024L4.24182 5.6576L-0.000976995 1.41481L1.41324 0.000593124L5.65603 4.24338L7.07009 5.65745Z" fill="currentColor"></path>
  </symbol>
  <symbol xmlns="http://www.w3.org/2000/svg" viewBox="0 0 9 5" id="ic_arr_ver">
    <path d="M1 4.5L4.5 1L8 4.5" stroke="currentColor" fill="none"></path>
  </symbol>
  <symbol xmlns="http://www.w3.org/2000/svg" viewBox="0 0 19 11" id="ic_arrow_hor">
    <path d="M12.3711 1L17.9525 5.65116L12.3711 10.3023" stroke="currentColor" stroke-width="0.930233" stroke-miterlimit="10" fill="none"></path>
    <path d="M0 5.65039H18" stroke="currentColor" stroke-width="0.930233" fill="none"></path>
  </symbol>
  <symbol xmlns="http://www.w3.org/2000/svg" viewBox="0 0 40 40" id="ic_arrow_hor_circle">
    <path d="M19.5346 39.0692C30.0666 39.0692 38.6044 30.5314 38.6044 19.9995C38.6044 9.46751 30.0666 0.929688 19.5346 0.929688C9.00267 0.929688 0.464844 9.46751 0.464844 19.9995C0.464844 30.5314 9.00267 39.0692 19.5346 39.0692Z" stroke="currentColor" stroke-width="0.930233" fill="none"></path>
    <path d="M17.6751 15.3496L12.0938 20.0008L17.6751 24.6519" stroke="currentColor" stroke-width="0.930233" stroke-miterlimit="10" fill="none"></path>
    <path d="M26.0472 20H12.0938" stroke="currentColor" stroke-width="0.930233" fill="none"></path>
  </symbol>
  <symbol xmlns="http://www.w3.org/2000/svg" viewBox="0 0 11 6" id="ic_arrow_hor2">
    <path d="M11 3L6 0.113249L6 5.88675L11 3ZM-4.37113e-08 3.5L6.5 3.5L6.5 2.5L4.37113e-08 2.5L-4.37113e-08 3.5Z" fill="currentColor"></path>
  </symbol>
  <symbol xmlns="http://www.w3.org/2000/svg" viewBox="0 0 27 26" id="ic_cart">
    <path d="M8 5H25C25.5523 5 26 5.44772 26 6V16C26 16.5523 25.5523 17 25 17H14C10.6863 17 8 14.3137 8 11V5Z" fill="none" stroke="currentColor" stroke-width="2"></path>
    <circle cx="21.5" cy="22.5" r="2.5" fill="none" stroke="currentColor" stroke-width="2"></circle>
    <circle cx="13.5" cy="22.5" r="2.5" fill="none" stroke="currentColor" stroke-width="2"></circle>
    <line x1="5" y1="1" x2="1" y2="1" stroke="currentColor" stroke-width="2" stroke-linecap="round" fill="none"></line>
    <line x1="7.62801" y1="4.657" x2="5.657" y2="1.37199" stroke="currentColor" stroke-width="2" stroke-linecap="round" fill="none"></line>
  </symbol>
  <symbol xmlns="http://www.w3.org/2000/svg" viewBox="0 0 14 10" id="ic_check">
    <path fill-rule="evenodd" clip-rule="evenodd" d="M5.65675 9.97268L5.65694 9.97286L13.8408 1.78898L12.0518 0L5.6533 6.39854L2.50032 3.24557L0.714844 5.03105L5.65662 9.97282L5.65675 9.97268Z" fill="currentColor"></path>
  </symbol>
  <symbol xmlns="http://www.w3.org/2000/svg" viewBox="0 0 16 16" id="ic_close">
    <path fill-rule="evenodd" clip-rule="evenodd" d="M0.757206 14.5205C0.423874 14.8539 0.423874 15.3943 0.757206 15.7276C1.09054 16.061 1.63097 16.061 1.96431 15.7276L7.9997 9.69223L14.0354 15.7279C14.3687 16.0613 14.9092 16.0613 15.2425 15.7279C15.5758 15.3946 15.5758 14.8542 15.2425 14.5208L9.2068 8.48513L15.2424 2.44952C15.5757 2.11619 15.5757 1.57575 15.2424 1.24242C14.9091 0.909084 14.3686 0.909084 14.0353 1.24242L7.9997 7.27803L1.96439 1.24271C1.63106 0.909382 1.09062 0.909382 0.757287 1.24271C0.423955 1.57604 0.423955 2.11648 0.757287 2.44981L6.7926 8.48513L0.757206 14.5205Z" fill="currentColor"></path>
  </symbol>
  <symbol xmlns="http://www.w3.org/2000/svg" viewBox="0 0 20 20" id="ic_delete">
    <path d="M10.4581 9.99799L19.9056 0.550468C20.0315 0.424525 20.0315 0.220371 19.9056 0.0944273C19.7796 -0.0314758 19.5755 -0.0314758 19.4495 0.0944273L10.002 9.54195L0.554498 0.0944273C0.426377 -0.0292988 0.222223 -0.0257511 0.0984571 0.102369C-0.0222453 0.227345 -0.0222453 0.425492 0.0984571 0.550468L9.54598 9.99799L0.0984571 19.4455C-0.0296632 19.5693 -0.0332109 19.7734 0.0905554 19.9016C0.214322 20.0297 0.418476 20.0332 0.546596 19.9095C0.549297 19.9069 0.551918 19.9042 0.554498 19.9016L10.002 10.454L19.4495 19.9016C19.5777 20.0253 19.7818 20.0218 19.9056 19.8937C20.0263 19.7687 20.0263 19.5705 19.9056 19.4455L10.4581 9.99799Z" fill="currentColor"></path>
  </symbol>
  <symbol xmlns="http://www.w3.org/2000/svg" viewBox="0 0 24 24" id="ic_email">
    <path d="M3 7C3 5.89543 3.89543 5 5 5H19C20.1046 5 21 5.89543 21 7V17C21 18.1046 20.1046 19 19 19H5C3.89543 19 3 18.1046 3 17V7Z" stroke="currentColor" stroke-width="2" stroke-linecap="round" stroke-linejoin="round" fill="none"></path>
    <path d="M21 7L12 13L3 7" stroke="currentColor" stroke-width="2" stroke-linecap="round" stroke-linejoin="round" fill="none"></path>
  </symbol>
  <symbol xmlns="http://www.w3.org/2000/svg" viewBox="0 0 23 24" id="ic_fb">
    <path d="M18.4355 2.19924C18.4355 0.910361 17.5768 0 16.3417 0H16.3141C16.158 0 16.0019 0 15.8595 0C15.6621 0 15.4692 0 15.2626 0C15.056 0 14.8585 0 14.6519 0C14.1973 0 13.83 0 13.4948 0.0143741C12.0117 0.0670793 10.6847 0.598922 9.64233 1.53324C8.59082 2.48193 7.91124 3.79956 7.69084 5.3328C7.58523 6.06588 7.57146 6.77021 7.57146 7.45059C7.30054 7.45059 7.01126 7.45059 6.74035 7.45059C6.45566 7.45059 5.69803 7.45059 5.12865 8.06389C4.55469 8.66281 4.55469 9.44859 4.55469 9.74566C4.55469 10.7087 4.55469 11.7005 4.55469 12.6636C4.55469 13.0038 4.55469 13.7752 5.15161 14.3885C5.72558 14.973 6.47862 14.973 6.79086 14.973C7.05259 14.973 7.3235 14.973 7.58523 14.973V15.9649C7.58523 17.867 7.57146 19.7788 7.57146 21.681C7.57146 22.0451 7.55768 22.7926 8.13165 23.3915C8.70561 24.0048 9.42192 24.0048 9.7709 24.0048C10.1336 24.0048 10.5102 24.0048 10.8775 24.0048H11.6994H12.4387C13.0127 24.0048 13.7152 24.0048 14.2846 23.4202C14.8723 22.8213 14.8723 22.0787 14.8723 21.4941V16.0463V15.0018C14.8723 15.0018 14.9504 15.0018 14.9871 15.0018C15.3774 15.0018 15.7677 15.0018 16.158 15.0018C17.4712 15.0018 18.3069 14.1346 18.3069 12.7499C18.3069 11.7724 18.3069 10.7566 18.3069 9.75045C18.3069 9.45338 18.3069 8.67718 17.7192 8.07826C17.1452 7.49371 16.4197 7.47934 16.1304 7.47934C15.8963 7.47934 15.6483 7.43621 15.4141 7.43621C15.2442 7.43621 15.0652 7.40747 14.8953 7.40747H14.8815C14.8815 7.40747 14.8815 7.32601 14.8815 7.27331C15.1019 7.27331 15.3223 7.28768 15.5565 7.28768C15.7907 7.28768 16.0386 7.30206 16.2866 7.28768C17.586 7.25893 18.4079 6.42044 18.4217 5.08844C18.4217 4.38411 18.4217 3.67498 18.4217 2.98503C18.4493 2.71671 18.4493 2.45798 18.4355 2.19924ZM16.8743 5.06448C16.8743 5.52446 16.7457 5.64903 16.2774 5.66341C15.6667 5.67778 15.0652 5.66341 14.4545 5.69215C13.6876 5.7209 13.3754 6.06109 13.3479 6.86125C13.3203 7.6087 13.3479 8.36574 13.3479 9.18028C13.582 9.18028 13.8162 9.18028 14.0504 9.18028C14.1652 9.18028 14.2846 9.18028 14.3994 9.18028C14.3994 9.18028 14.3994 9.18028 14.4131 9.18028C14.7529 9.18028 15.1019 9.13715 15.4417 9.13715C15.6759 9.13715 15.91 9.12278 16.1442 9.12278C16.6493 9.12278 16.7687 9.23298 16.7687 9.76003C16.7687 10.7518 16.7687 11.7532 16.7687 12.7451C16.7687 13.2338 16.6401 13.3679 16.1718 13.3679C15.7815 13.3679 15.405 13.3679 15.0147 13.3679C14.4682 13.3679 13.8575 13.3679 13.3387 13.3679C13.3387 13.5596 13.3387 13.7225 13.3387 13.8854C13.3387 16.4248 13.3387 18.9786 13.3387 21.5133C13.3387 22.3805 13.3111 22.3949 12.4662 22.3949C11.9474 22.3949 11.4239 22.3949 10.9051 22.3949C10.5423 22.3949 10.1658 22.3949 9.79845 22.3949C9.23825 22.3949 9.1602 22.2991 9.1602 21.7001C9.1602 19.108 9.17397 16.5015 9.17397 13.9094C9.17397 13.7465 9.17397 13.5835 9.17397 13.3679C8.6551 13.3679 8.19593 13.3679 7.74135 13.3679C7.42911 13.3679 7.11687 13.3679 6.81841 13.3679C6.25822 13.3679 6.14343 13.2577 6.14343 12.6876C6.14343 11.7245 6.14343 10.7471 6.14343 9.78399C6.14343 9.22819 6.26281 9.10361 6.78168 9.10361C7.09392 9.10361 7.39238 9.10361 7.70462 9.10361C8.17297 9.10361 8.64133 9.10361 9.12346 9.10361C9.13724 8.91196 9.13724 8.74905 9.15101 8.58615C9.17856 7.59433 9.12346 6.57856 9.2704 5.60112C9.61018 3.25334 11.2999 1.74406 13.5774 1.66261C13.9402 1.64823 14.3167 1.64823 14.684 1.64823C15.0881 1.64823 15.4922 1.67698 15.8963 1.67698C16.0524 1.67698 16.2223 1.70573 16.3784 1.70573H16.3922C16.7549 1.70573 16.9248 1.86864 16.9248 2.24716C16.8881 3.19106 16.8881 4.111 16.8743 5.06448Z" fill="currentColor"></path>
  </symbol>
  <symbol xmlns="http://www.w3.org/2000/svg" viewBox="0 0 27 25" id="ic_file">
    <path d="M24.7764 2.22618C21.8116 -0.742059 17.0015 -0.742059 14.0366 2.22618L1.72548 14.3936C-0.57516 16.6976 -0.57516 20.4464 1.72548 22.7471C4.02955 25.0511 7.77493 25.0511 10.079 22.7471L22.3902 10.5797C24.0369 8.93297 24.0369 6.25915 22.3902 4.61241C20.7434 2.96567 18.0696 2.96567 16.4229 4.61241L7.16553 13.8663C6.83687 14.1984 6.83687 14.7291 7.16553 15.0612C7.49419 15.3898 8.02828 15.3898 8.35694 15.0612L17.6143 5.80382C18.6003 4.81783 20.2059 4.81783 21.1953 5.80382C22.1813 6.7898 22.1813 8.39888 21.1953 9.38487L8.88417 21.5522C7.23743 23.199 4.56704 23.199 2.91688 21.5522C1.27014 19.9055 1.27014 17.2317 2.91688 15.585L15.1082 3.53741C17.4157 1.22992 21.1577 1.22992 23.4617 3.53741C25.7692 5.8449 25.7692 9.58344 23.4617 11.8909L14.3277 21.0284C13.9956 21.3605 13.9956 21.8912 14.3277 22.2233C14.6563 22.5554 15.1904 22.5554 15.5225 22.2233L24.7764 12.9659C27.7412 10.0011 27.7412 5.19099 24.7764 2.22618Z" fill="currentColor"></path>
  </symbol>
  <symbol xmlns="http://www.w3.org/2000/svg" viewBox="0 0 23 24" id="ic_instagram">
    <path d="M16.7873 0H6.2127C2.78965 0 0 2.91094 0 6.48281V17.5125C0 21.0891 2.78965 24 6.2127 24H16.7828C20.2104 24 22.9955 21.0891 22.9955 17.5172V6.48281C23 2.91094 20.2104 0 16.7873 0ZM21.1402 17.5172C21.1402 20.025 19.1861 22.0641 16.7828 22.0641H6.2127C3.80937 22.0641 1.85527 20.025 1.85527 17.5172V6.48281C1.85527 3.975 3.80937 1.93594 6.2127 1.93594H16.7828C19.1861 1.93594 21.1402 3.975 21.1402 6.48281V17.5172Z" fill="currentColor"></path>
    <path d="M16.6498 11.1609C16.488 10.0125 15.9849 8.96719 15.1943 8.14688C14.4082 7.32656 13.4064 6.80156 12.3058 6.62813C11.8027 6.54844 11.2951 6.54844 10.792 6.62813C9.43082 6.83906 8.22691 7.58906 7.40484 8.74688C6.58277 9.90469 6.24137 11.3203 6.44351 12.7406C6.64566 14.1609 7.36441 15.4172 8.47398 16.275C9.37242 16.9688 10.4371 17.3344 11.5377 17.3344C11.7937 17.3344 12.0498 17.3156 12.3058 17.2734C13.667 17.0625 14.8709 16.3125 15.6929 15.1547C16.5105 14.0016 16.8519 12.5859 16.6498 11.1609ZM12.0318 15.3562C11.1603 15.4922 10.2888 15.2625 9.58355 14.7141C8.87828 14.1656 8.41558 13.3641 8.28531 12.4547C8.15504 11.5453 8.37516 10.6359 8.90074 9.9C9.42633 9.15937 10.1945 8.68125 11.066 8.54531C11.2277 8.52188 11.3894 8.50781 11.5511 8.50781C11.7129 8.50781 11.8746 8.52188 12.0363 8.54531C13.4828 8.77031 14.6013 9.93281 14.817 11.4469C15.0775 13.3266 13.8332 15.0797 12.0318 15.3562Z" fill="currentColor"></path>
    <path d="M17.9686 5.25005C17.7934 5.06724 17.5553 4.96411 17.3127 4.96411C17.0701 4.96411 16.8275 5.06724 16.6568 5.25005C16.4816 5.43286 16.3828 5.6813 16.3828 5.93443C16.3828 6.18755 16.4816 6.44068 16.6568 6.6188C16.832 6.80162 17.0701 6.90474 17.3127 6.90474C17.5553 6.90474 17.7979 6.80162 17.9686 6.6188C18.1438 6.43599 18.2426 6.18755 18.2426 5.93443C18.2426 5.67661 18.1438 5.42817 17.9686 5.25005Z" fill="currentColor"></path>
  </symbol>
  <symbol xmlns="http://www.w3.org/2000/svg" viewBox="0 0 20 25" id="ic_location">
    <path d="M19 9.7561C19 11.3333 18.3126 13.5889 16.7263 16.1682C15.2512 18.5667 13.0342 21.1859 10 23.7101C6.96585 21.1859 4.74875 18.5667 3.27368 16.1682C1.68742 13.5889 1 11.3333 1 9.7561C1 4.94337 5.00602 1 10 1C14.994 1 19 4.94337 19 9.7561Z" stroke="currentColor" stroke-width="2" fill="none"></path>
    <circle cx="10" cy="10" r="4" stroke="currentColor" stroke-width="2" fill="none"></circle>
  </symbol>
  <symbol xmlns="http://www.w3.org/2000/svg" viewBox="0 0 30 30" id="ic_modal_close">
    <path d="M19.1119 4.13845L23.0247 0.924368C23.402 0.60296 23.975 0.672832 24.2824 1.03616C24.6038 1.41347 24.5339 1.98641 24.1706 2.29384L20.3696 5.42408C19.4333 6.41625 20.2159 8.06521 21.0823 8.93162C21.9487 9.79802 23.6116 10.5946 24.5898 9.6443L27.6921 5.8433C28.0135 5.466 28.5725 5.4101 28.9498 5.73151C29.3271 6.05292 29.383 6.61189 29.0616 6.98919L25.9034 10.8461L25.8336 10.916C24.2125 12.537 21.795 11.964 20.146 10.5666L11.8221 18.8903C12.1435 19.4633 12.0457 20.2039 11.5706 20.679L5.56164 26.6879C4.97473 27.2749 4.0105 27.2609 3.43756 26.6879L3.0882 26.3386C2.50128 25.7517 2.48731 24.7874 3.07423 24.2005L9.08316 18.1916C9.57226 17.7025 10.2989 17.6187 10.8719 17.9401L19.2377 9.57443C17.994 7.93944 17.5748 5.67561 19.1119 4.13845ZM3.64717 24.5499C3.21397 24.9831 3.21397 25.6818 3.64717 26.115C4.08037 26.5482 4.77909 26.5482 5.21229 26.115C5.64549 25.6818 5.64549 24.9831 5.21229 24.5499C4.79306 24.1027 4.09435 24.1027 3.64717 24.5499Z" fill="currentColor"></path>
    <path d="M13.6996 7.10922L6.69853 0.108114L0.186523 6.62012L7.18763 13.6212L9.9685 10.8403L18.1489 19.0205C17.8275 19.5935 17.9253 20.3341 18.4004 20.8092L24.4094 26.8182C24.9963 27.4051 25.9606 27.3912 26.5335 26.8182L26.8829 26.4689C27.4698 25.8819 27.4698 24.9317 26.8829 24.3448L20.8739 18.3358C20.3848 17.8467 19.6581 17.7628 19.0852 18.0842L10.9048 9.90407L13.6996 7.10922ZM5.32905 3.99296L6.69853 2.62348L11.1843 7.10922L9.81479 8.47869L5.32905 3.99296ZM8.5571 9.73638L7.18762 11.1059L2.70189 6.62012L4.07137 5.25064L8.5571 9.73638ZM26.3239 24.6801C26.7571 25.1133 26.7571 25.8121 26.3239 26.2453C25.8907 26.6785 25.192 26.6785 24.7588 26.2453C24.3256 25.8121 24.3256 25.1133 24.7588 24.6801C25.192 24.2469 25.8767 24.233 26.3239 24.6801Z" fill="currentColor"></path>
  </symbol>
  <symbol xmlns="http://www.w3.org/2000/svg" viewBox="0 0 24 24" id="ic_phone">
    <path d="M20.561 6.96879C19.041 13.7235 13.7235 19.041 6.96879 20.561C4.81355 21.046 3 19.2091 3 17V15.25C3 14.6977 3.4486 14.2547 3.99877 14.2063C5.08823 14.1104 6.13312 13.8593 7.11117 13.4751L8.82037 15.1843C11.6003 13.854 13.854 11.6003 15.1843 8.82037L13.4751 7.11118C13.8593 6.13313 14.1104 5.08823 14.2063 3.99877C14.2547 3.44861 14.6977 3 15.25 3H17C19.2091 3 21.046 4.81355 20.561 6.96879Z" stroke="currentColor" stroke-width="2" stroke-linecap="round" stroke-linejoin="round" fill="none"></path>
  </symbol>
  <symbol xmlns="http://www.w3.org/2000/svg" viewBox="0 0 18 18" id="ic_search">
    <path fill-rule="evenodd" clip-rule="evenodd" d="M0 8.1C0 3.62649 3.62645 0 8.0999 0C12.5733 0 16.1998 3.62649 16.1998 8.1C16.1998 10.0125 15.537 11.7702 14.4285 13.1559L17.7364 16.4636C18.0879 16.815 18.0879 17.3849 17.7364 17.7364C17.385 18.0879 16.8151 18.0879 16.4636 17.7364L13.1558 14.4287C11.7701 15.5372 10.0124 16.2 8.0999 16.2C3.62645 16.2 0 12.5735 0 8.1ZM8.0999 1.8C4.62055 1.8 1.79998 4.6206 1.79998 8.1C1.79998 11.5794 4.62055 14.4 8.0999 14.4C11.5792 14.4 14.3998 11.5794 14.3998 8.1C14.3998 4.6206 11.5792 1.8 8.0999 1.8Z" fill="currentColor"></path>
  </symbol>
  <symbol xmlns="http://www.w3.org/2000/svg" viewBox="0 0 9 8" id="ic_sort">
    <line x1="1" y1="1" x2="3" y2="1" stroke="currentColor" stroke-width="2" stroke-linecap="round" fill="none"></line>
    <line x1="1" y1="4" x2="5" y2="4" stroke="currentColor" stroke-width="2" stroke-linecap="round" fill="none"></line>
    <line x1="1" y1="7" x2="8" y2="7" stroke="currentColor" stroke-width="2" stroke-linecap="round" fill="none"></line>
  </symbol>
  <symbol xmlns="http://www.w3.org/2000/svg" viewBox="0 0 24 24" id="ic_telegram">
    <path d="M19.471 4.00146C19.2109 4.01262 18.9722 4.08643 18.7626 4.16798C18.5688 4.24326 17.8732 4.53176 16.7654 4.9902C15.6577 5.44864 14.1898 6.05647 12.6253 6.70575C9.49607 8.00431 5.97968 9.46503 4.17788 10.2132C4.11601 10.2386 3.86472 10.3145 3.58718 10.5237C3.309 10.7333 3 11.1883 3 11.6859C3 12.0873 3.20308 12.4961 3.4483 12.7301C3.69352 12.9642 3.94205 13.0736 4.14976 13.1551C4.75741 13.3939 6.63519 14.1338 7.45135 14.4561C7.73727 15.3016 8.40881 17.293 8.56594 17.7831H8.56419C8.69201 18.1821 8.81661 18.4421 8.98963 18.6591C9.07614 18.7676 9.17941 18.866 9.30608 18.9436C9.35468 18.9734 9.40849 18.9965 9.46254 19.0182C9.47008 19.0214 9.47784 19.0221 9.4854 19.0251L9.4643 19.0199C9.47997 19.0261 9.49404 19.0353 9.51001 19.0407C9.53604 19.0496 9.55408 19.0493 9.58912 19.0564C9.71244 19.0938 9.83554 19.1188 9.94952 19.1188C10.4388 19.1188 10.7389 18.8569 10.7389 18.8569L10.7582 18.843L12.8714 17.0789L15.4592 19.4397C15.5055 19.5042 15.8755 20 16.7338 20C17.2452 20 17.6512 19.752 17.9099 19.49C18.1686 19.2281 18.3297 18.96 18.4022 18.5967V18.5932V18.5915C18.4525 18.3336 20.9372 6.02751 20.9372 6.02751L20.932 6.04833C21.0091 5.70875 21.0318 5.38036 20.9408 5.04571C20.8497 4.71105 20.6039 4.38446 20.3079 4.21308C20.0119 4.0417 19.7311 3.99029 19.471 4.00146ZM19.1159 5.94598C19.0183 6.42948 16.8071 17.3906 16.6635 18.1179L14.0932 15.7744C13.4307 15.1701 12.3976 15.1488 11.7093 15.7224L10.3978 16.8169L11.0975 14.1179C11.0975 14.1179 15.9244 9.29694 16.2152 9.01629C16.4492 8.79159 16.4982 8.71282 16.4982 8.63467C16.4982 8.53076 16.444 8.456 16.3189 8.456C16.2064 8.456 16.0536 8.56238 15.9726 8.61212C14.9388 9.24805 10.5126 11.737 8.36904 12.94C8.28853 12.8925 8.20933 12.8431 8.12116 12.8082C7.41783 12.5305 6.06599 11.9957 5.2749 11.6842C7.14198 10.9088 10.3425 9.58021 13.3232 8.34325C14.8875 7.69408 16.3549 7.0857 17.4616 6.62769C18.3958 6.24108 18.8831 6.0409 19.1159 5.94598ZM16.6353 18.2463H16.6371L16.6353 18.2532C16.6368 18.2456 16.6343 18.2517 16.6353 18.2463Z" fill="currentColor"></path>
  </symbol>
  <symbol xmlns="http://www.w3.org/2000/svg" viewBox="0 0 20 20" id="ic_time">
    <circle cx="10" cy="10" r="9" stroke="currentColor" stroke-width="2" fill="none"></circle>
    <path d="M10 4V9.89474L13 12" stroke="currentColor" stroke-width="2" stroke-linecap="round" fill="none"></path>
  </symbol>
  <symbol xmlns="http://www.w3.org/2000/svg" viewBox="0 0 23 26" id="ic_video_play">
    <path d="M21 11.268C22.3333 12.0378 22.3333 13.9622 21 14.732L4.49999 24.2583C3.16666 25.0281 1.5 24.0659 1.5 22.5263L1.5 3.47372C1.5 1.93412 3.16666 0.971867 4.5 1.74167L21 11.268Z" fill="currentColor" stroke="white" stroke-width="2"></path>
  </symbol>
  <symbol xmlns="http://www.w3.org/2000/svg" viewBox="0 0 24 24" id="ic_whatsapp">
    <path fill-rule="evenodd" clip-rule="evenodd" d="M20.0866 3.90667C18.2051 2.0337 15.7051 1 13.0423 1C7.55404 1 3.08464 5.44589 3.08464 10.9093C3.08138 12.6559 3.54036 14.3603 4.41276 15.8639L3 21L8.27995 19.6196C9.73177 20.4102 11.3724 20.825 13.0391 20.8283H13.0423C18.5306 20.8283 22.9967 16.3824 23 10.9157C23 8.26831 21.9648 5.77965 20.0866 3.90667ZM13.0423 19.1529H13.0391C11.5547 19.1529 10.0964 18.7544 8.82682 18.0058L8.52409 17.8276L5.38932 18.6442L6.22591 15.6047L6.0306 15.2936C5.20052 13.9812 4.76432 12.4647 4.76432 10.9093C4.76432 6.36941 8.47852 2.67531 13.0456 2.67531C15.2559 2.67531 17.3327 3.53403 18.8952 5.08944C20.4577 6.64809 21.3171 8.71549 21.3171 10.9157C21.3171 15.4588 17.6029 19.1529 13.0423 19.1529ZM17.5801 12.9831C17.3327 12.86 16.1087 12.2605 15.8809 12.1795C15.653 12.0953 15.487 12.0564 15.321 12.3027C15.1549 12.5522 14.6797 13.1095 14.5332 13.2748C14.39 13.4368 14.2435 13.4595 13.9961 13.3364C13.7454 13.2132 12.9447 12.9507 11.9941 12.105C11.2552 11.4504 10.7539 10.6371 10.6107 10.3908C10.4642 10.1413 10.5944 10.0084 10.7181 9.88529C10.832 9.77511 10.9688 9.59689 11.0924 9.45107C11.2161 9.30849 11.2585 9.2048 11.3431 9.03953C11.4245 8.87427 11.3822 8.72845 11.3203 8.60531C11.2585 8.48218 10.7604 7.26053 10.5521 6.76474C10.3503 6.28192 10.1452 6.34997 9.99219 6.34025C9.84896 6.33377 9.68294 6.33377 9.51693 6.33377C9.35091 6.33377 9.08073 6.39533 8.85287 6.64485C8.625 6.89112 7.98372 7.4906 7.98372 8.70901C7.98372 9.92741 8.87565 11.1069 8.99935 11.2722C9.12305 11.4342 10.7539 13.9358 13.2507 15.0084C13.8431 15.2644 14.3053 15.4167 14.6667 15.5301C15.2624 15.7181 15.806 15.6922 16.2357 15.6306C16.7142 15.5593 17.707 15.0311 17.9154 14.4511C18.1204 13.8743 18.1204 13.3785 18.0586 13.2748C17.9967 13.1711 17.8307 13.1095 17.5801 12.9831Z" fill="currentColor"></path>
  </symbol>
  <symbol xmlns="http://www.w3.org/2000/svg" viewBox="0 0 33 24" id="ic_youtube">
    <path d="M31.8798 6.22345C31.6797 2.87724 28.8282 0.139425 25.5264 0.0887251L21.074 0.0380252C18.3225 -0.0126751 13.77 -0.0126751 10.9685 0.0380252L6.41599 0.0887251C3.11419 0.139425 0.31267 2.87724 0.112561 6.22345V6.47695C-0.0375204 9.31616 -0.0375204 13.9299 0.112561 16.7691V17.0226C0.262643 20.3688 3.11419 23.1066 6.41599 23.1573L10.9685 23.2587C12.3692 23.3094 14.1702 23.3094 16.0212 23.3094C17.8722 23.3094 19.7232 23.3094 21.124 23.2587L25.5764 23.1573C28.8782 23.1066 31.7297 20.3181 31.9299 17.0226V16.7184C32.0799 13.8792 32.0799 9.26546 31.9299 6.42625C31.9299 6.47695 31.8798 6.22345 31.8798 6.22345ZM29.8787 16.6677V16.9212C29.7287 19.152 27.7276 21.1293 25.5264 21.1293L21.074 21.2307C18.3225 21.2814 13.77 21.2814 11.0185 21.2307L6.46601 21.1293C4.21479 21.0786 2.26373 19.2027 2.16368 16.9212V16.6677C2.01359 13.8792 2.01359 9.36686 2.11365 6.57835V6.32485C2.2137 4.04334 4.16476 2.16743 6.41599 2.11673L10.9685 2.06603C12.3192 2.06603 14.1202 2.01533 15.9212 2.01533C17.7722 2.01533 19.6232 2.01533 21.0239 2.06603L25.4763 2.11673C27.7276 2.16743 29.6786 4.04334 29.8287 6.32485V6.57835C30.0288 9.36686 30.0288 13.8792 29.8787 16.6677Z" fill="currentColor"></path>
    <path d="M21.3724 10.4317L13.368 6.17287C13.0678 6.02077 12.6676 6.02077 12.3675 6.22357C12.0673 6.42637 11.8672 6.73057 11.8672 7.08548V15.6031C11.8672 15.958 12.0673 16.3129 12.3675 16.465C12.5175 16.5664 12.7176 16.6171 12.8677 16.6171C13.0178 16.6171 13.1679 16.5664 13.318 16.5157L21.3223 12.2569C21.6725 12.1048 21.8726 11.7499 21.8726 11.3443C21.8726 10.9387 21.7225 10.5838 21.3724 10.4317ZM13.9183 13.8793V8.75858L18.7209 11.3443L13.9183 13.8793Z" fill="currentColor"></path>
  </symbol>
  <symbol xmlns="http://www.w3.org/2000/svg" viewBox="0 0 24 24" id="ic_zoom">
    <path fill-rule="evenodd" clip-rule="evenodd" d="M0 10.8C0 4.83532 4.83526 0 10.7999 0C16.7645 0 21.5997 4.83532 21.5997 10.8C21.5997 13.35 20.716 15.6936 19.2381 17.5412L23.6485 21.9514C24.1171 22.4201 24.1172 23.1799 23.6486 23.6485C23.18 24.1171 22.4202 24.1172 21.9515 23.6486L17.541 19.2383C15.6934 20.7162 13.3499 21.6 10.7999 21.6C4.83526 21.6 0 16.7647 0 10.8ZM10.7999 2.4C6.16073 2.4 2.39997 6.16081 2.39997 10.8C2.39997 15.4392 6.16073 19.2 10.7999 19.2C15.439 19.2 19.1998 15.4392 19.1998 10.8C19.1998 6.16081 15.439 2.4 10.7999 2.4Z" fill="currentColor"></path>
  </symbol>
</svg>